<svg xmlns="http://www.w3.org/2000/svg" xmlns:xlink="http://www.w3.org/1999/xlink" width="213.165" height="322.832" viewBox="0 0 213.165 322.832">
  <defs>
    <clipPath id="clip-path">
      <path id="Rectangle_7513" data-name="Rectangle 7513" d="M16.916,0H175.081A16.917,16.917,0,0,1,192,16.919V290.955a16.916,16.916,0,0,1-16.916,16.916H16.916A16.916,16.916,0,0,1,0,290.955V16.916A16.916,16.916,0,0,1,16.916,0Z" fill="#45495e"/>
    </clipPath>
  </defs>
  <g id="Group_1" data-name="Group 1" transform="translate(390 180)">
    <g id="Group_62350" data-name="Group 62350" transform="translate(-389.999 -180)">
      <g id="Group_20689" data-name="Group 20689" transform="translate(-0.001)">
        <path id="Rectangle_7512" data-name="Rectangle 7512" d="M16.924,0H175.16a16.924,16.924,0,0,1,16.924,16.924V291.087a16.924,16.924,0,0,1-16.923,16.923H16.924A16.924,16.924,0,0,1,0,291.087V16.924A16.924,16.924,0,0,1,16.924,0Z" transform="translate(21.551 2.136) rotate(4.012)" fill="#ee6c4d" opacity="0.2"/>
        <path id="Rectangle_7511" data-name="Rectangle 7511" d="M16.916,0H175.081A16.917,16.917,0,0,1,192,16.919V290.955a16.916,16.916,0,0,1-16.916,16.916H16.916A16.916,16.916,0,0,1,0,290.955V16.916A16.916,16.916,0,0,1,16.916,0Z" transform="translate(11.425)" fill="#ee6c4d"/>
        <g id="Mask_Group" data-name="Mask Group" transform="translate(11.425)">
          <g id="Rectangle_7513-2" data-name="Rectangle 7513" clip-path="url(#clip-path)">
            <g id="Scroll_Group_1" data-name="Scroll Group 1" transform="translate(96.421 148.015)">
              <g id="Group_20188" data-name="Group 20188">
                <g id="Ellipse_609" data-name="Ellipse 609">
                  <path id="Vector" d="M197.072,98.536A98.536,98.536,0,1,1,98.536,0a98.536,98.536,0,0,1,98.536,98.536Z" fill="none"/>
                  <path id="Vector-2" data-name="Vector" d="M196.226,98.113A98.113,98.113,0,1,1,98.113,0a98.113,98.113,0,0,1,98.113,98.113Z" transform="translate(0.423 0.423)" fill="none" stroke="#fff" stroke-width="1"/>
                </g>
                <g id="Ellipse_610" data-name="Ellipse 610" transform="translate(0 16.916)">
                  <path id="Vector-3" data-name="Vector" d="M197.072,98.536A98.536,98.536,0,1,1,98.536,0a98.536,98.536,0,0,1,98.536,98.536Z" fill="none"/>
                  <path id="Vector-4" data-name="Vector" d="M196.226,98.113A98.113,98.113,0,1,1,98.113,0a98.113,98.113,0,0,1,98.113,98.113Z" transform="translate(0.423 0.423)" fill="none" stroke="#fff" stroke-width="1"/>
                </g>
                <g id="Ellipse_611" data-name="Ellipse 611" transform="translate(11.841 25.374)">
                  <path id="Vector-5" data-name="Vector" d="M197.072,98.536A98.536,98.536,0,1,1,98.536,0a98.536,98.536,0,0,1,98.536,98.536Z" fill="none"/>
                  <path id="Vector-6" data-name="Vector" d="M196.226,98.113A98.113,98.113,0,1,1,98.113,0a98.113,98.113,0,0,1,98.113,98.113Z" transform="translate(0.423 0.423)" fill="none" stroke="#fff" stroke-width="1"/>
                </g>
              </g>
            </g>
            <circle id="Ellipse_822" data-name="Ellipse 822" cx="90.924" cy="90.924" r="90.924" transform="translate(-43.982 -21.145)" fill="#45495e"/>
          </g>
        </g>
      </g>
    </g>
  </g>
</svg>
