<svg xmlns="http://www.w3.org/2000/svg" width="82.085" height="74.438" viewBox="0 0 82.085 74.438">
  <path id="company-workers" d="M32.68,63.328c-.156,4.161,1.425,7.54,4.337,9.27a7.875,7.875,0,0,0,8.049,0c2.912-1.73,4.493-5.109,4.338-9.27-.194-5.181-4.437-7.686-8.3-7.822q-.065,0-.129,0C37.117,55.642,32.874,58.147,32.68,63.328Zm3.682.138c.113-3.007,2.576-4.179,4.679-4.274,2.1.1,4.567,1.267,4.679,4.274.1,2.771-.821,4.945-2.537,5.964a4.191,4.191,0,0,1-4.284,0C37.184,68.41,36.259,66.237,36.363,63.466Zm25.706-.138c-.156,4.161,1.425,7.54,4.337,9.27a7.874,7.874,0,0,0,8.048,0c2.912-1.73,4.493-5.109,4.337-9.27-.194-5.181-4.437-7.686-8.3-7.822-.043,0-.086,0-.129,0C66.5,55.642,62.262,58.147,62.068,63.328Zm3.682.138c.112-3.007,2.575-4.179,4.679-4.274,2.1.1,4.567,1.267,4.679,4.274.1,2.771-.821,4.945-2.537,5.964a4.191,4.191,0,0,1-4.284,0C66.572,68.41,65.647,66.237,65.751,63.466ZM51.711,37.842a7.874,7.874,0,0,0,8.049,0c2.912-1.73,4.494-5.109,4.338-9.27-.194-5.181-4.437-7.686-8.3-7.822-.043,0-.086,0-.129,0-3.86.136-8.1,2.641-8.3,7.822C47.218,32.733,48.8,36.112,51.711,37.842Zm-.655-9.132c.113-3.007,2.576-4.179,4.679-4.274,2.1.1,4.567,1.267,4.68,4.274.1,2.771-.821,4.945-2.537,5.965a4.191,4.191,0,0,1-4.284,0C51.877,33.654,50.953,31.481,51.056,28.71ZM7.63,72.6a7.875,7.875,0,0,0,8.049,0c2.912-1.73,4.493-5.109,4.338-9.27-.194-5.181-4.437-7.686-8.3-7.822q-.065,0-.129,0c-3.86.135-8.1,2.641-8.3,7.822C3.136,67.489,4.717,70.868,7.63,72.6Zm-.655-9.132c.112-3.007,2.576-4.179,4.68-4.274,2.1.1,4.567,1.267,4.679,4.274.1,2.771-.821,4.945-2.537,5.964a4.192,4.192,0,0,1-4.284,0C7.8,68.41,6.871,66.237,6.974,63.466ZM52.665,92.919a1.843,1.843,0,0,1-3.623.676l-1.624-8.764c-.559-3.017-3.6-4.355-6.376-4.355s-5.817,1.373-6.375,4.389L33.445,91.5h8.388a1.843,1.843,0,1,1,0,3.685H31.23a1.888,1.888,0,0,1-1.417-.71,1.943,1.943,0,0,1-.4-1.559l1.625-8.769c.944-5.1,5.7-7.381,10-7.381s9.055,2.282,10,7.381Zm3.07-46.863c-2.771,0-5.816,1.35-6.375,4.367a1.843,1.843,0,0,1-3.623-.671c.944-5.1,5.7-7.381,10-7.381s9.056,2.282,10,7.381a1.843,1.843,0,1,1-3.623.671C61.553,47.406,58.506,46.056,55.735,46.056ZM80.577,95.067A1.833,1.833,0,0,1,78.43,93.6l-1.624-8.764c-.559-3.016-3.6-4.355-6.376-4.355s-5.817,1.373-6.376,4.389L62.833,91.5h8.388a1.843,1.843,0,0,1,0,3.685h-10.6a1.888,1.888,0,0,1-1.417-.71,1.944,1.944,0,0,1-.4-1.559l1.625-8.769c.944-5.1,5.7-7.381,10-7.381s9.055,2.282,10,7.381l1.624,8.769A1.844,1.844,0,0,1,80.577,95.067ZM22.324,37.842a7.874,7.874,0,0,0,8.048,0c2.912-1.73,4.493-5.109,4.337-9.27-.193-5.181-4.436-7.686-8.3-7.822q-.065,0-.129,0c-3.86.136-8.1,2.641-8.3,7.822C17.83,32.733,19.412,36.112,22.324,37.842Zm-.655-9.133c.112-3.007,2.576-4.178,4.679-4.274,2.1.1,4.567,1.267,4.679,4.274.1,2.771-.821,4.945-2.537,5.964a4.191,4.191,0,0,1-4.284,0C22.49,33.654,21.565,31.481,21.669,28.71Zm1.609,64.209a1.843,1.843,0,0,1-3.623.676L18.03,84.831c-.559-3.017-3.605-4.355-6.376-4.355s-5.817,1.373-6.376,4.389L4.058,91.5h8.926a1.843,1.843,0,1,1,0,3.685H1.842a1.888,1.888,0,0,1-1.417-.71,1.943,1.943,0,0,1-.4-1.56l1.624-8.769c.944-5.1,5.7-7.381,10-7.381s9.055,2.282,10,7.381Zm3.07-46.863c-2.771,0-5.817,1.35-6.376,4.367a1.842,1.842,0,1,1-3.623-.671c.944-5.1,5.7-7.381,10-7.381s9.055,2.282,10,7.381a1.843,1.843,0,1,1-3.624.671C32.165,47.406,29.119,46.056,26.348,46.056Z" transform="translate(0 -20.749)" fill="#ee6c4d"/>
</svg>
