<svg xmlns="http://www.w3.org/2000/svg" width="26.76" height="26.76" viewBox="0 0 26.76 26.76">
  <path id="facebook" d="M23.624,0H3.136A3.139,3.139,0,0,0,0,3.136V23.624A3.139,3.139,0,0,0,3.136,26.76H23.624a3.139,3.139,0,0,0,3.136-3.136V3.136A3.139,3.139,0,0,0,23.624,0Zm1.045,23.624a1.047,1.047,0,0,1-1.045,1.045H17.457V17.038H20.8l.39-3.24H17.457V10.3a1.534,1.534,0,0,1,1.568-1.568h2.352V5.7a23.247,23.247,0,0,0-2.352-.209A4.84,4.84,0,0,0,15.672,6.9a4.759,4.759,0,0,0-1.456,3.407V13.8h-3.4v3.24h3.4v7.631H3.136a1.047,1.047,0,0,1-1.045-1.045V3.136A1.047,1.047,0,0,1,3.136,2.091H23.624a1.047,1.047,0,0,1,1.045,1.045Zm0,0"/>
</svg>
