<svg xmlns="http://www.w3.org/2000/svg" width="27.083" height="30.323" viewBox="0 0 27.083 30.323">
  <g id="file_1_" data-name="file (1)" transform="translate(-27.352)">
    <g id="Group_62636" data-name="Group 62636" transform="translate(27.352)">
      <g id="Group_62620" data-name="Group 62620" transform="translate(20.273 4.854)">
        <g id="Group_62619" data-name="Group 62619">
          <path id="Path_22086" data-name="Path 22086" d="M370.247,87.19a.592.592,0,0,1-.592-.592v-4.05a.592.592,0,1,1,1.185,0V86.6A.592.592,0,0,1,370.247,87.19Z" transform="translate(-369.655 -81.956)"/>
        </g>
      </g>
      <g id="Group_62622" data-name="Group 62622" transform="translate(20.27 2.948)">
        <g id="Group_62621" data-name="Group 62621">
          <circle id="Ellipse_3094" data-name="Ellipse 3094" cx="0.592" cy="0.592" r="0.592"/>
        </g>
      </g>
      <g id="Group_62625" data-name="Group 62625">
        <path id="Path_22087" data-name="Path 22087" d="M54.436,6.222a6.218,6.218,0,0,0-10-4.94H29.507a2.158,2.158,0,0,0-2.155,2.155V24.982a2.158,2.158,0,0,0,2.155,2.155h1.879v1.031a2.158,2.158,0,0,0,2.155,2.155H49.027a2.158,2.158,0,0,0,2.155-2.155V19.953a.592.592,0,1,0-1.185,0v8.215a.972.972,0,0,1-.971.971H33.542a.972.972,0,0,1-.971-.971V27.137H44.993a2.158,2.158,0,0,0,2.155-2.155V12.353A6.243,6.243,0,0,0,50,12.184V14.6a.592.592,0,0,0,1.185,0V11.689a6.228,6.228,0,0,0,3.253-5.467Zm-8.472,18.76a.972.972,0,0,1-.971.971H29.507a.972.972,0,0,1-.971-.971V3.437a.972.972,0,0,1,.971-.971h13.75A6.19,6.19,0,0,0,42,5.959H31.914a.592.592,0,0,0-.592.592v2.5a.592.592,0,0,0,.592.592H42.586a.59.59,0,0,0,.358-.121,6.257,6.257,0,0,0,3.019,2.5ZM41.994,7.144V8.461H32.506V7.144Zm6.221,4.116a5.038,5.038,0,1,1,5.036-5.038A5.043,5.043,0,0,1,48.215,11.26Z" transform="translate(-27.352)"/>
        <g id="Group_62624" data-name="Group 62624" transform="translate(22.647 16.674)">
          <g id="Group_62623" data-name="Group 62623">
            <path id="Path_22088" data-name="Path 22088" d="M410.333,282.724a.592.592,0,1,1,.577-.458A.6.6,0,0,1,410.333,282.724Z" transform="translate(-409.742 -281.541)"/>
          </g>
        </g>
      </g>
      <g id="Group_62635" data-name="Group 62635" transform="translate(3.97 11.705)">
        <g id="Group_62634" data-name="Group 62634">
          <g id="Group_62627" data-name="Group 62627">
            <g id="Group_62626" data-name="Group 62626">
              <path id="Path_22089" data-name="Path 22089" d="M105.642,198.818H94.969a.592.592,0,0,1,0-1.185h10.672a.592.592,0,1,1,0,1.185Z" transform="translate(-94.377 -197.633)"/>
            </g>
          </g>
          <g id="Group_62629" data-name="Group 62629" transform="translate(0 2.809)">
            <g id="Group_62628" data-name="Group 62628">
              <path id="Path_22090" data-name="Path 22090" d="M105.642,246.247H94.969a.592.592,0,0,1,0-1.185h10.672a.592.592,0,0,1,0,1.185Z" transform="translate(-94.377 -245.063)"/>
            </g>
          </g>
          <g id="Group_62631" data-name="Group 62631" transform="translate(0 5.618)">
            <g id="Group_62630" data-name="Group 62630">
              <path id="Path_22091" data-name="Path 22091" d="M105.642,293.678H94.969a.592.592,0,0,1,0-1.185h10.672a.592.592,0,0,1,0,1.185Z" transform="translate(-94.377 -292.493)"/>
            </g>
          </g>
          <g id="Group_62633" data-name="Group 62633" transform="translate(0 8.427)">
            <g id="Group_62632" data-name="Group 62632">
              <path id="Path_22092" data-name="Path 22092" d="M105.642,341.108H94.969a.592.592,0,0,1,0-1.185h10.672a.592.592,0,0,1,0,1.185Z" transform="translate(-94.377 -339.923)"/>
            </g>
          </g>
        </g>
      </g>
    </g>
  </g>
</svg>
