<svg width="53" height="53" viewBox="0 0 53 53" fill="none" xmlns="http://www.w3.org/2000/svg">
<path d="M26.4029 1.14258C31.3979 1.14258 36.2807 2.62376 40.4339 5.39881C44.587 8.17387 47.824 12.1182 49.7355 16.7329C51.647 21.3477 52.1471 26.4256 51.1727 31.3246C50.1982 36.2236 47.7929 40.7236 44.2609 44.2556C40.729 47.7875 36.2289 50.1928 31.33 51.1673C26.431 52.1418 21.353 51.6416 16.7383 49.7302C12.1235 47.8187 8.17924 44.5817 5.40418 40.4285C2.62913 36.2753 1.14795 31.3925 1.14795 26.3976C1.14795 19.6995 3.80874 13.2758 8.54497 8.5396C13.2812 3.80337 19.7049 1.14258 26.4029 1.14258V1.14258ZM37.8829 30.9896H14.9229C14.9512 34.0156 16.1731 36.908 18.3228 39.0378C20.4726 41.1676 23.3763 42.3624 26.4024 42.3624C29.4286 42.3624 32.3323 41.1676 34.4821 39.0378C36.6318 36.908 37.8537 34.0156 37.882 30.9896H37.8829ZM37.8829 19.5096C37.8829 19.0547 37.7481 18.61 37.4953 18.2318C37.2426 17.8535 36.8834 17.5587 36.4631 17.3847C36.0428 17.2106 35.5804 17.165 35.1342 17.2538C34.6881 17.3425 34.2783 17.5616 33.9566 17.8832C33.6349 18.2049 33.4159 18.6147 33.3271 19.0609C33.2384 19.507 33.2839 19.9695 33.458 20.3897C33.6321 20.81 33.9269 21.1692 34.3051 21.422C34.6834 21.6747 35.1281 21.8096 35.583 21.8096C36.1928 21.8093 36.7775 21.5669 37.2086 21.1356C37.6398 20.7043 37.882 20.1194 37.882 19.5096H37.8829ZM19.5159 19.5096C19.5159 19.0547 19.3811 18.61 19.1283 18.2318C18.8756 17.8535 18.5164 17.5587 18.0961 17.3847C17.6759 17.2106 17.2134 17.165 16.7672 17.2538C16.3211 17.3425 15.9113 17.5616 15.5896 17.8832C15.2679 18.2049 15.0489 18.6147 14.9601 19.0609C14.8714 19.507 14.9169 19.9695 15.091 20.3897C15.2651 20.81 15.5599 21.1692 15.9381 21.422C16.3164 21.6747 16.7611 21.8096 17.216 21.8096C17.8258 21.8093 18.4105 21.5669 18.8416 21.1356C19.2728 20.7043 19.5149 20.1194 19.5149 19.5096H19.5159Z" fill="#FFE5DF"/>
<path d="M37.8827 19.5129C37.8827 19.9681 37.7476 20.4131 37.4945 20.7915C37.2415 21.1699 36.8818 21.4647 36.461 21.6386C36.0403 21.8124 35.5774 21.8575 35.1311 21.7681C34.6847 21.6787 34.2749 21.4589 33.9535 21.1364C33.6322 20.8139 33.4138 20.4034 33.3259 19.9567C33.2381 19.51 33.2848 19.0473 33.4601 18.6272C33.6354 18.207 33.9314 17.8484 34.3107 17.5966C34.69 17.3449 35.1355 17.2113 35.5907 17.2129C36.1993 17.215 36.7823 17.4583 37.2119 17.8894C37.6415 18.3205 37.8827 18.9043 37.8827 19.5129V19.5129Z" fill="#FFE5DF"/>
<path d="M19.515 19.5129C19.515 19.9681 19.3799 20.4131 19.1269 20.7915C18.8738 21.1699 18.5141 21.4647 18.0934 21.6386C17.6726 21.8124 17.2098 21.8575 16.7634 21.7681C16.317 21.6787 15.9072 21.4589 15.5859 21.1364C15.2645 20.8139 15.0461 20.4034 14.9583 19.9567C14.8704 19.51 14.9171 19.0473 15.0924 18.6272C15.2677 18.207 15.5638 17.8484 15.9431 17.5966C16.3223 17.3449 16.7678 17.2113 17.223 17.2129C17.8317 17.215 18.4146 17.4583 18.8442 17.8894C19.2738 18.3205 19.515 18.9043 19.515 19.5129V19.5129Z" fill="#FFE5DF"/>
<path d="M35.5871 22.9525C36.2682 22.9525 36.9341 22.7505 37.5005 22.372C38.0668 21.9936 38.5082 21.4557 38.7689 20.8264C39.0296 20.1971 39.0978 19.5046 38.9649 18.8366C38.832 18.1685 38.504 17.5548 38.0223 17.0732C37.5407 16.5915 36.927 16.2635 36.259 16.1306C35.5909 15.9977 34.8984 16.0659 34.2691 16.3266C33.6398 16.5873 33.1019 17.0287 32.7235 17.5951C32.3451 18.1614 32.1431 18.8273 32.1431 19.5085C32.1441 20.4215 32.5073 21.2969 33.153 21.9426C33.7986 22.5882 34.674 22.9514 35.5871 22.9525V22.9525ZM35.5871 18.3605C35.8143 18.3597 36.0366 18.4263 36.2259 18.552C36.4153 18.6776 36.563 18.8567 36.6505 19.0664C36.738 19.2761 36.7613 19.507 36.7175 19.73C36.6737 19.9529 36.5646 20.1578 36.4042 20.3188C36.2439 20.4797 36.0393 20.5895 35.8165 20.6341C35.5937 20.6787 35.3627 20.6562 35.1527 20.5694C34.9427 20.4827 34.7631 20.3355 34.6368 20.1467C34.5105 19.9578 34.4431 19.7357 34.4431 19.5085C34.4444 19.2055 34.5653 18.9152 34.7796 18.701C34.9938 18.4867 35.2841 18.3658 35.5871 18.3645V18.3605Z" fill="#EE6C4D"/>
<path d="M17.2189 22.9525C17.9001 22.9525 18.5659 22.7505 19.1323 22.372C19.6986 21.9936 20.1401 21.4557 20.4007 20.8264C20.6614 20.1971 20.7296 19.5046 20.5967 18.8366C20.4638 18.1685 20.1358 17.5548 19.6542 17.0732C19.1725 16.5915 18.5589 16.2635 17.8908 16.1306C17.2227 15.9977 16.5302 16.0659 15.9009 16.3266C15.2716 16.5873 14.7338 17.0287 14.3553 17.5951C13.9769 18.1614 13.7749 18.8273 13.7749 19.5085C13.776 20.4215 14.1391 21.2969 14.7848 21.9426C15.4304 22.5882 16.3058 22.9514 17.2189 22.9525V22.9525ZM17.2189 18.3605C17.4461 18.3597 17.6685 18.4263 17.8578 18.552C18.0471 18.6776 18.1949 18.8567 18.2824 19.0664C18.3699 19.2761 18.3932 19.507 18.3493 19.73C18.3055 19.9529 18.1965 20.1578 18.0361 20.3188C17.8757 20.4797 17.6711 20.5895 17.4483 20.6341C17.2255 20.6787 16.9945 20.6562 16.7845 20.5694C16.5745 20.4827 16.395 20.3355 16.2687 20.1467C16.1423 19.9578 16.0749 19.7357 16.0749 19.5085C16.0762 19.2055 16.1972 18.9152 16.4114 18.701C16.6257 18.4867 16.9159 18.3658 17.2189 18.3645V18.3605Z" fill="#EE6C4D"/>
<path d="M26.4 52.8C31.6212 52.8 36.7251 51.2518 41.0664 48.3512C45.4078 45.4506 48.7915 41.3279 50.7898 36.5042C52.7882 31.6806 53.3113 26.3728 52.2932 21.2518C51.275 16.1309 48.7612 11.4269 45.0697 7.73451C41.3782 4.04217 36.6748 1.52734 31.5541 0.508012C26.4334 -0.511315 21.1254 0.0106372 16.3013 2.00787C11.4772 4.0051 7.35371 7.38792 4.45212 11.7286C1.55053 16.0693 0.00118663 21.1728 0 26.394C0.00688062 33.3942 2.79032 40.1057 7.73962 45.0562C12.6889 50.0066 19.3998 52.7915 26.4 52.8V52.8ZM26.4 2.29001C31.1683 2.28863 35.83 3.70138 39.7953 6.34958C43.7607 8.99778 46.8517 12.7625 48.6772 17.1675C50.5028 21.5725 50.9811 26.42 50.0514 31.0969C49.1218 35.7737 46.8261 40.0698 43.4546 43.4418C40.0832 46.8138 35.7875 49.1103 31.1108 50.0407C26.4341 50.9711 21.5865 50.4936 17.1812 48.6688C12.7759 46.8439 9.01065 43.7536 6.36179 39.7887C3.71293 35.8238 2.29941 31.1624 2.3 26.394C2.30899 20.0051 4.85098 13.8804 9.36866 9.36267C13.8863 4.84499 20.011 2.30301 26.4 2.29401V2.29001Z" fill="#EE6C4D"/>
<path d="M26.4019 43.6168C29.7497 43.6131 32.9594 42.2816 35.3268 39.9144C37.6942 37.5472 39.0259 34.3376 39.0299 30.9898C39.0299 30.6853 38.909 30.3933 38.6937 30.178C38.4784 29.9627 38.1864 29.8418 37.8819 29.8418H14.9229C14.6184 29.8418 14.3264 29.9627 14.1111 30.178C13.8959 30.3933 13.7749 30.6853 13.7749 30.9898C13.7789 34.3375 15.1105 37.5469 17.4776 39.9141C19.8448 42.2812 23.0542 43.6128 26.4019 43.6168V43.6168ZM36.6699 32.1418C36.3885 34.6681 35.1856 37.002 33.2913 38.697C31.397 40.392 28.9443 41.3291 26.4024 41.3291C23.8605 41.3291 21.4078 40.392 19.5135 38.697C17.6192 37.002 16.4163 34.6681 16.1349 32.1418H36.6699Z" fill="#EE6C4D"/>
</svg>
