<svg xmlns="http://www.w3.org/2000/svg" width="24.231" height="21" viewBox="0 0 24.231 21">
  <g id="insight_1_" data-name="insight (1)" transform="translate(-0.5 -1.5)">
    <path id="Path_22045" data-name="Path 22045" d="M21.5,6.428V5.538A4.042,4.042,0,0,0,17.462,1.5H4.538A4.042,4.042,0,0,0,.5,5.538v8.077a4.044,4.044,0,0,0,3.231,3.958v.888A4.042,4.042,0,0,0,7.769,22.5H20.692a4.042,4.042,0,0,0,4.038-4.038V10.385A4.044,4.044,0,0,0,21.5,6.428ZM2.115,13.615V5.538A2.426,2.426,0,0,1,4.538,3.115H17.462a2.426,2.426,0,0,1,2.423,2.423v8.077a2.426,2.426,0,0,1-2.423,2.423H4.538a2.426,2.426,0,0,1-2.423-2.423Zm21,4.846a2.426,2.426,0,0,1-2.423,2.423H7.769a2.426,2.426,0,0,1-2.423-2.423v-.808H17.462A4.042,4.042,0,0,0,21.5,13.615V8.1a2.426,2.426,0,0,1,1.615,2.284Z" transform="translate(0 0)" fill="#fff"/>
    <path id="Path_22046" data-name="Path 22046" d="M4.308,10.962a.8.8,0,0,0,.571-.237L7.7,7.906l2.71,1.355a.813.813,0,0,0,.932-.152l3.231-3.231a.808.808,0,1,0-1.142-1.142L10.61,7.556,7.9,6.2a.813.813,0,0,0-.932.152L3.737,9.583a.808.808,0,0,0,.571,1.379Z" transform="translate(1.846 1.846)" fill="#fff"/>
  </g>
</svg>
