<svg id="Layer_3" data-name="Layer 3" xmlns="http://www.w3.org/2000/svg" width="25.269" height="25.27" viewBox="0 0 25.269 25.27">
  <path id="Path_17840" data-name="Path 17840" d="M25.456,19.189c-.045-.037-5.089-3.647-6.458-3.411-.658.116-1.034.564-1.788,1.463-.121.145-.414.491-.639.738a10.494,10.494,0,0,1-1.391-.566,11.54,11.54,0,0,1-5.324-5.324A10.494,10.494,0,0,1,9.29,10.7c.248-.227.595-.519.743-.644.894-.75,1.342-1.126,1.458-1.785.238-1.364-3.373-6.413-3.41-6.458A1.928,1.928,0,0,0,6.643,1C5.179,1,1,6.421,1,7.335c0,.053.077,5.447,6.728,12.214,6.759,6.644,12.153,6.721,12.206,6.721.914,0,6.335-4.18,6.335-5.644A1.926,1.926,0,0,0,25.456,19.189ZM19.841,24.58c-.736-.061-5.263-.658-10.922-6.218C3.331,12.672,2.749,8.133,2.69,7.429A22.788,22.788,0,0,1,6.654,2.745c.034.034.078.084.136.15A29.811,29.811,0,0,1,9.8,8a10.012,10.012,0,0,1-.856.767,8.451,8.451,0,0,0-1.274,1.2l-.2.286.061.346a9.618,9.618,0,0,0,.813,2.225,13.233,13.233,0,0,0,6.1,6.1,9.593,9.593,0,0,0,2.225.814l.346.061.286-.2a8.522,8.522,0,0,0,1.2-1.279c.264-.315.617-.735.75-.854a29.618,29.618,0,0,1,5.12,3.014c.07.059.119.1.152.134a22.768,22.768,0,0,1-4.684,3.965Z" transform="translate(-1 -1)"/>
</svg>
