<svg id="Outline" xmlns="http://www.w3.org/2000/svg" width="50.436" height="50.094" viewBox="0 0 50.436 50.094">
  <path id="Path_21949" data-name="Path 21949" d="M60.658,42.405V30.888A3.294,3.294,0,0,0,57.368,27.6h-.081l-4-8.1a3.148,3.148,0,0,0-1.856-1.617,3.074,3.074,0,0,0-2.4.2l-7.62,3.976a.824.824,0,0,0-.341.334l-1.107,2.02-2.228-.273a.818.818,0,0,0-.481.087L30.8,27.6H14.59A3.294,3.294,0,0,0,11.3,30.888v1.645h1.645V30.888a1.647,1.647,0,0,1,1.645-1.645h9.378l-.159.5a.823.823,0,0,0,.23.858l1.669,1.521-1.67,1.522a.823.823,0,0,0-.23.858l.685,2.152-2.206.483a.823.823,0,0,0-.628.628l-.483,2.206-2.152-.685a.823.823,0,0,0-.858.23l-1.521,1.669-1.522-1.67a.822.822,0,0,0-.858-.23l-1.322.421V34.179H11.3V47.341a3.294,3.294,0,0,0,3.291,3.291H31.3L22.157,55.4a1.443,1.443,0,0,1-1.124.094,1.516,1.516,0,0,1-.89-.781l-1.382-2.8-1.476.728,1.382,2.8a3.148,3.148,0,0,0,1.856,1.617,3.075,3.075,0,0,0,2.4-.2l11.934-6.228h8.53a.823.823,0,0,0,.456-.138l2.012-1.341,2.012,1.341a.823.823,0,0,0,.456.138h9.049a3.294,3.294,0,0,0,3.291-3.291V44.05H59.013v3.291a1.647,1.647,0,0,1-1.645,1.645h-8.8l-1.894-1.263V46.518H45.028v1.205l-1.894,1.263H14.59a1.647,1.647,0,0,1-1.645-1.645V41.432l1.319-.42,1.774,1.948a.823.823,0,0,0,1.216,0l1.774-1.948,2.509.8a.823.823,0,0,0,1.053-.608l.563-2.573,2.573-.563a.823.823,0,0,0,.608-1.053l-.8-2.509,1.947-1.774a.823.823,0,0,0,0-1.216L25.536,29.74l.159-.5H43.134l1.894,1.263v2.028h1.645V30.506l1.894-1.263h8.8a1.647,1.647,0,0,1,1.645,1.645V42.405ZM48.319,27.6a.823.823,0,0,0-.456.138l-2.012,1.341-2.012-1.341a.823.823,0,0,0-.456-.138H34.356L37.8,25.8l2.528.309a.823.823,0,0,0,.821-.422L42.4,23.4l7.4-3.861a1.443,1.443,0,0,1,1.124-.095,1.516,1.516,0,0,1,.891.782L55.452,27.6Zm-1.645,9.049H45.028V34.179h1.645Zm0,4.113H45.028V38.292h1.645Zm-1.645,1.645h1.645v2.468H45.028ZM18.894,31.184l1.264,1.053-4.113,4.936L14.781,36.12Zm-4.3.527h1.645v1.645H14.59ZM18.7,36.647V35h1.645v1.645Zm7.239,7.075-.864,1.152.864,1.152-1.316.987-.576-.768-.576.768-1.316-.987.864-1.152-.864-1.152,1.316-.987.576.768.576-.768Zm4.936,0-.864,1.152.864,1.152-1.316.987-.576-.768-.576.768-1.316-.987.864-1.152-.864-1.152,1.316-.987.576.768.576-.768Zm4.936,0-.864,1.152.864,1.152-1.316.987-.576-.768-.576.768-1.316-.987.864-1.152-.864-1.152,1.316-.987.576.768.576-.768Zm4.936,0-.864,1.152.864,1.152-1.316.987-.576-.768-.576.768-1.316-.987.864-1.152-.864-1.152,1.316-.987.576.768.576-.768Zm.165-3.784H31.043V38.292h9.872Zm0-3.291H31.043V35h9.872Zm-6.581-4.936v1.645H31.043V31.711Zm6.581,1.645H35.979V31.711h4.936Zm15.63,6.581h-7.4V38.292h7.4Zm0-3.291h-7.4V35h7.4Zm0-3.291h-7.4V31.711h7.4Zm-7.4,11.517h7.4v1.645h-7.4Zm7.4-1.645h-7.4V41.582h7.4ZM35.156,60.5H36.8v1.645H35.156ZM36.8,58.858H35.156V52.277H36.8ZM35.156,16.08H36.8v7.4H35.156ZM36.8,14.435H35.156V12.79H36.8Zm22.546,42.2,1.85,1.6L60.119,59.48l-1.85-1.6Zm-.944-.818-1.077,1.243-4.8-4.16L53.6,51.655ZM14.759,17.99l8.6,7.45-1.077,1.243-8.6-7.45Zm-2.185.283L10.761,16.7l1.077-1.243,1.813,1.571ZM61.2,16.7,56.261,20.98l-1.077-1.243,4.936-4.278ZM11.838,59.48l-1.077-1.243L15.7,53.958,16.774,55.2Zm37.216,2.3-1.472.736-4.936-9.872,1.472-.736ZM29.485,26.32,22.9,13.158l1.472-.736,6.581,13.162Zm-5.11,36.2L22.9,61.78l2.879-5.758,1.472.736ZM49.054,13.158l-2.468,4.936-1.472-.736,2.468-4.936Z" transform="translate(-10.761 -12.422)" fill="#ee6c4d"/>
</svg>
