<svg id="point" xmlns="http://www.w3.org/2000/svg" width="82.238" height="82.238" viewBox="0 0 82.238 82.238">
  <path id="Path_22083" data-name="Path 22083" d="M70.187,12.042a41.115,41.115,0,1,0,0,58.145,40.846,40.846,0,0,0,0-58.145ZM41.114,77.411a36.3,36.3,0,1,1,36.3-36.3A36.337,36.337,0,0,1,41.114,77.411Z" fill="#ee6c4d"/>
  <path id="Path_22084" data-name="Path 22084" d="M136.374,97.349l-14.14-7.378L111.393,78.93a2.408,2.408,0,0,0-3.443.006L97.19,89.971,82.979,97.346a2.412,2.412,0,0,0-.994,3.313l7.486,13.4,2,16.245a2.411,2.411,0,0,0,2.912,2.057l15.331-3.389,15.251,3.389a2.412,2.412,0,0,0,2.913-2.046l2.078-16.256,7.413-13.414A2.41,2.41,0,0,0,136.374,97.349Zm-10.858,14.787a2.4,2.4,0,0,0-.281.859l-1.8,14.095-13.2-2.933a2.4,2.4,0,0,0-1.042,0L95.928,127.09,94.2,113.006a2.416,2.416,0,0,0-.288-.88l-6.5-11.647,12.352-6.41a2.417,2.417,0,0,0,.615-.458l9.31-9.549,9.384,9.556a2.43,2.43,0,0,0,.6.448l12.289,6.413Z" transform="translate(-68.56 -65.646)" fill="#ee6c4d"/>
  <path id="Path_22085" data-name="Path 22085" d="M216.212,198.977h-5.1a2.414,2.414,0,0,0-2.409,2.41v18.308a2.409,2.409,0,0,0,4.818,0v-5.556c.994,0,2.065-.01,2.688-.01a7.576,7.576,0,1,0,0-15.151Zm0,10.333c-.622,0-1.678,0-2.666.01-.015-3.181,0-1.635-.016-5.525h2.682a2.759,2.759,0,1,1,0,5.515Z" transform="translate(-175.183 -167.017)" fill="#ee6c4d"/>
</svg>
