<svg id="point_3_" data-name="point (3)" xmlns="http://www.w3.org/2000/svg" width="39.975" height="39.975" viewBox="0 0 39.975 39.975">
  <path id="Path_21946" data-name="Path 21946" d="M240.078,229.006h-1.3c.006,1.875,0,1.15.008,2.685.48,0,.994,0,1.3,0a1.341,1.341,0,1,0,0-2.68Z" transform="translate(-220.132 -211.126)" fill="#ee6c4d"/>
  <path id="Path_21947" data-name="Path 21947" d="M132.751,119.347,128.19,114.7l-4.525,4.641a1.172,1.172,0,0,1-.3.222l-6,3.115,3.161,5.661a1.174,1.174,0,0,1,.14.428l.842,6.845,6.448-1.426a1.167,1.167,0,0,1,.507,0l6.414,1.425.876-6.85a1.164,1.164,0,0,1,.137-.418l3.131-5.665-5.973-3.117A1.177,1.177,0,0,1,132.751,119.347Zm-4.605,9.3c-.3,0-.824,0-1.307,0v2.7a1.171,1.171,0,0,1-2.342,0V122.46a1.176,1.176,0,0,1,1.171-1.175h2.478a3.682,3.682,0,1,1,0,7.364Z" transform="translate(-108.2 -105.747)" fill="#ee6c4d"/>
  <path id="Path_21948" data-name="Path 21948" d="M34.117,5.857a19.983,19.983,0,1,0,0,28.26A19.972,19.972,0,0,0,34.117,5.857Zm-.67,11.16-3.6,6.519-1.01,7.9a1.172,1.172,0,0,1-1.416.994l-7.412-1.647-7.451,1.647a1.172,1.172,0,0,1-1.415-1l-.972-7.9L6.529,17.022a1.172,1.172,0,0,1,.483-1.61l6.907-3.584,5.229-5.363a1.17,1.17,0,0,1,1.674,0l5.27,5.366,6.872,3.586a1.171,1.171,0,0,1,.483,1.6Z" transform="translate(0 0)" fill="#ee6c4d"/>
</svg>
