<svg xmlns="http://www.w3.org/2000/svg" width="28.742" height="30.924" viewBox="0 0 28.742 30.924">
  <g id="_06_registry" data-name="06 registry" transform="translate(-3 -2)">
    <path id="Path_21926" data-name="Path 21926" d="M23.984,17.462V8.626a1.1,1.1,0,0,0-.32-.784L18.141,2.32A1.1,1.1,0,0,0,17.357,2H4.1A1.1,1.1,0,0,0,3,3.1V27.4a1.1,1.1,0,0,0,1.1,1.1H17.026a7.731,7.731,0,1,0,6.958-11.044ZM5.209,4.209H16.871l4.9,4.881v8.692a7.731,7.731,0,0,0-5.522,7.411,7.322,7.322,0,0,0,.088,1.1H5.209ZM23.984,30.715A5.522,5.522,0,0,1,18.771,27a5.312,5.312,0,0,1-.2-.707,4.959,4.959,0,0,1-.11-1.1,5.522,5.522,0,1,1,5.522,5.522ZM27.3,25.193a1.1,1.1,0,0,1-1.1,1.1h-1.1v1.1a1.1,1.1,0,1,1-2.209,0V26.3h-1.1a1.1,1.1,0,0,1,0-2.209h1.1v-1.1a1.1,1.1,0,1,1,2.209,0v1.1h1.1A1.1,1.1,0,0,1,27.3,25.193ZM7.418,8.626a1.1,1.1,0,0,1,1.1-1.1h3.313a1.1,1.1,0,1,1,0,2.209H8.522A1.1,1.1,0,0,1,7.418,8.626Zm0,4.418a1.1,1.1,0,0,1,1.1-1.1h9.94a1.1,1.1,0,0,1,0,2.209H8.522A1.1,1.1,0,0,1,7.418,13.044Zm11.044,5.522H8.522a1.1,1.1,0,1,1,0-2.209h9.94a1.1,1.1,0,0,1,0,2.209Zm-1.1-9.94a1.1,1.1,0,1,1,1.1,1.1A1.1,1.1,0,0,1,17.357,8.626Zm-3.313,0a1.1,1.1,0,1,1,1.1,1.1A1.1,1.1,0,0,1,14.044,8.626Z" transform="translate(0 0)"/>
  </g>
</svg>
