<svg width="53" height="53" viewBox="0 0 53 53" fill="none" xmlns="http://www.w3.org/2000/svg">
<path d="M26.4029 1.14844C31.3979 1.14844 36.2807 2.62962 40.4339 5.40467C44.587 8.17973 47.824 12.124 49.7355 16.7388C51.647 21.3535 52.1471 26.4315 51.1727 31.3304C50.1982 36.2294 47.7929 40.7294 44.2609 44.2614C40.729 47.7934 36.2289 50.1987 31.33 51.1732C26.431 52.1476 21.353 51.6475 16.7383 49.736C12.1235 47.8245 8.17924 44.5875 5.40418 40.4344C2.62913 36.2812 1.14795 31.3984 1.14795 26.4034C1.14795 19.7054 3.80874 13.2817 8.54497 8.54546C13.2812 3.80922 19.7049 1.14844 26.4029 1.14844V1.14844ZM37.8829 24.1074C37.8829 23.6525 37.7481 23.2079 37.4953 22.8296C37.2426 22.4514 36.8834 22.1566 36.4631 21.9825C36.0428 21.8084 35.5804 21.7629 35.1342 21.8516C34.6881 21.9404 34.2783 22.1594 33.9566 22.4811C33.6349 22.8028 33.4159 23.2126 33.3271 23.6587C33.2384 24.1049 33.2839 24.5673 33.458 24.9876C33.6321 25.4079 33.9269 25.7671 34.3051 26.0198C34.6834 26.2725 35.1281 26.4074 35.583 26.4074C36.1928 26.4072 36.7775 26.1647 37.2086 25.7334C37.6398 25.3021 37.882 24.7173 37.882 24.1074H37.8829ZM19.5159 24.1074C19.5159 23.6525 19.3811 23.2079 19.1283 22.8296C18.8756 22.4514 18.5164 22.1566 18.0961 21.9825C17.6759 21.8084 17.2134 21.7629 16.7672 21.8516C16.3211 21.9404 15.9113 22.1594 15.5896 22.4811C15.2679 22.8028 15.0489 23.2126 14.9601 23.6587C14.8714 24.1049 14.9169 24.5673 15.091 24.9876C15.2651 25.4079 15.5599 25.7671 15.9381 26.0198C16.3164 26.2725 16.7611 26.4074 17.216 26.4074C17.8258 26.4072 18.4105 26.1647 18.8416 25.7334C19.2728 25.3021 19.5149 24.7173 19.5149 24.1074H19.5159Z" fill="#FFE5DF"/>
<path d="M37.8827 24.1106C37.8827 24.5658 37.7476 25.0108 37.4945 25.3892C37.2415 25.7676 36.8818 26.0624 36.461 26.2362C36.0403 26.4101 35.5774 26.4552 35.1311 26.3658C34.6847 26.2764 34.2749 26.0565 33.9535 25.7341C33.6322 25.4116 33.4138 25.001 33.3259 24.5543C33.2381 24.1077 33.2848 23.645 33.4601 23.2248C33.6354 22.8047 33.9314 22.446 34.3107 22.1943C34.69 21.9425 35.1355 21.809 35.5907 21.8106C36.1993 21.8127 36.7823 22.0559 37.2119 22.487C37.6415 22.9181 37.8827 23.5019 37.8827 24.1106V24.1106Z" fill="#FFE5DF"/>
<path d="M19.515 24.1106C19.515 24.5658 19.3799 25.0108 19.1269 25.3892C18.8738 25.7676 18.5141 26.0624 18.0934 26.2362C17.6726 26.4101 17.2098 26.4552 16.7634 26.3658C16.317 26.2764 15.9072 26.0565 15.5859 25.7341C15.2645 25.4116 15.0461 25.001 14.9583 24.5543C14.8704 24.1077 14.9171 23.645 15.0924 23.2248C15.2677 22.8047 15.5638 22.446 15.9431 22.1943C16.3223 21.9425 16.7678 21.809 17.223 21.8106C17.8317 21.8127 18.4146 22.0559 18.8442 22.487C19.2738 22.9181 19.515 23.5019 19.515 24.1106V24.1106Z" fill="#FFE5DF"/>
<path d="M26.4 0C21.1786 0 16.0744 1.54833 11.733 4.4492C7.3915 7.35007 4.00775 11.4732 2.00959 16.2972C0.0114387 21.1211 -0.511369 26.4293 0.50728 31.5504C1.52593 36.6715 4.04029 41.3755 7.73239 45.0676C11.4245 48.7597 16.1285 51.2741 21.2496 52.2927C26.3707 53.3114 31.6789 52.7886 36.5029 50.7904C41.3268 48.7923 45.4499 45.4085 48.3508 41.0671C51.2517 36.7256 52.8 31.6214 52.8 26.4C52.7913 19.401 50.0071 12.6911 45.058 7.74203C40.1089 2.79296 33.399 0.00873243 26.4 0V0ZM26.4 50.51C21.6324 50.5094 16.9719 49.0951 13.008 46.446C9.04409 43.7968 5.9547 40.0318 4.13047 35.627C2.30624 31.2221 1.8291 26.3752 2.75937 21.6992C3.68964 17.0232 5.98554 12.728 9.35679 9.35678C12.728 5.98553 17.0232 3.68963 21.6992 2.75936C26.3753 1.82909 31.2221 2.30623 35.627 4.13046C40.0318 5.95469 43.7969 9.04408 46.446 13.008C49.0951 16.9719 50.5094 21.6323 50.51 26.4C50.5039 32.7925 47.9618 38.9214 43.4416 43.4416C38.9214 47.9618 32.7925 50.5039 26.4 50.51V50.51Z" fill="#EE6C4D"/>
<path d="M20.6629 24.1061C20.6629 23.425 20.4609 22.7591 20.0825 22.1927C19.7041 21.6264 19.1662 21.1849 18.5369 20.9243C17.9076 20.6636 17.2151 20.5954 16.547 20.7283C15.8789 20.8612 15.2653 21.1892 14.7836 21.6708C14.302 22.1525 13.974 22.7661 13.8411 23.4342C13.7082 24.1023 13.7764 24.7948 14.0371 25.4241C14.2977 26.0534 14.7392 26.5913 15.3055 26.9697C15.8719 27.3481 16.5377 27.5501 17.2189 27.5501C18.132 27.5491 19.0074 27.1859 19.653 26.5402C20.2987 25.8946 20.6618 25.0192 20.6629 24.1061V24.1061ZM16.0709 24.1061C16.0709 23.8791 16.1382 23.6571 16.2644 23.4683C16.3905 23.2795 16.5698 23.1324 16.7796 23.0455C16.9894 22.9586 17.2202 22.9359 17.4429 22.9802C17.6656 23.0245 17.8701 23.1338 18.0307 23.2944C18.1912 23.4549 18.3005 23.6595 18.3448 23.8821C18.3891 24.1048 18.3664 24.3357 18.2795 24.5454C18.1926 24.7552 18.0455 24.9345 17.8567 25.0606C17.6679 25.1868 17.446 25.2541 17.2189 25.2541C16.9153 25.2525 16.6246 25.1309 16.4103 24.9159C16.196 24.7008 16.0754 24.4097 16.0749 24.1061H16.0709Z" fill="#EE6C4D"/>
<path d="M35.5871 20.6621C34.9059 20.6621 34.24 20.8641 33.6737 21.2425C33.1073 21.621 32.6659 22.1588 32.4052 22.7881C32.1446 23.4175 32.0764 24.1099 32.2092 24.778C32.3421 25.4461 32.6701 26.0597 33.1518 26.5414C33.6334 27.023 34.2471 27.351 34.9152 27.4839C35.5832 27.6168 36.2757 27.5486 36.905 27.288C37.5343 27.0273 38.0722 26.5859 38.4506 26.0195C38.8291 25.4531 39.0311 24.7873 39.0311 24.1061C39.03 23.193 38.6668 22.3176 38.0212 21.672C37.3755 21.0264 36.5001 20.6632 35.5871 20.6621ZM35.5871 25.2541C35.36 25.2541 35.1381 25.1868 34.9493 25.0606C34.7605 24.9345 34.6133 24.7552 34.5265 24.5454C34.4396 24.3357 34.4168 24.1048 34.4611 23.8821C34.5054 23.6595 34.6148 23.4549 34.7753 23.2944C34.9359 23.1338 35.1404 23.0245 35.3631 22.9802C35.5858 22.9359 35.8166 22.9586 36.0264 23.0455C36.2362 23.1324 36.4155 23.2795 36.5416 23.4683C36.6677 23.6571 36.7351 23.8791 36.7351 24.1061C36.7348 24.4105 36.6138 24.7023 36.3985 24.9176C36.1833 25.1328 35.8915 25.2538 35.5871 25.2541V25.2541Z" fill="#EE6C4D"/>
<path d="M30.9961 16.0706C31.1739 16.0704 31.3491 16.0289 31.5081 15.9496L36.1001 13.6496C36.3546 13.5036 36.5435 13.2657 36.6281 12.9848C36.7127 12.7039 36.6865 12.4013 36.555 12.1391C36.4234 11.8768 36.1964 11.6749 35.9207 11.5748C35.6449 11.4747 35.3413 11.4839 35.0721 11.6006L30.4811 13.8966C30.2502 14.0126 30.065 14.2031 29.9558 14.4373C29.8465 14.6715 29.8195 14.9357 29.8791 15.1872C29.9386 15.4387 30.0813 15.6628 30.2841 15.8231C30.4868 15.9834 30.7377 16.0706 30.9961 16.0706V16.0706Z" fill="#EE6C4D"/>
<path d="M16.7059 13.6558L21.2979 15.9558C21.5709 16.092 21.8869 16.1141 22.1762 16.0173C22.4656 15.9206 22.7047 15.7128 22.8409 15.4398C22.977 15.1667 22.9992 14.8508 22.9024 14.5614C22.8057 14.272 22.5979 14.033 22.3249 13.8968L17.7339 11.6008C17.4619 11.4694 17.1492 11.4503 16.8634 11.5477C16.5775 11.6451 16.3415 11.8512 16.2064 12.1213C16.0713 12.3914 16.0479 12.7038 16.1414 12.991C16.2349 13.2781 16.4376 13.517 16.7059 13.6558V13.6558Z" fill="#EE6C4D"/>
<path d="M26.4031 32.1426C24.2935 32.1394 22.2069 32.5807 20.2792 33.4378C18.3515 34.2948 16.626 35.5483 15.2151 37.1166C15.0334 37.346 14.9461 37.636 14.971 37.9276C14.9958 38.2192 15.131 38.4903 15.3489 38.6856C15.5668 38.8809 15.851 38.9857 16.1435 38.9787C16.4361 38.9716 16.7149 38.8532 16.9231 38.6476C18.1204 37.3221 19.5824 36.2625 21.2148 35.5373C22.8471 34.812 24.6134 34.4373 26.3996 34.4373C28.1858 34.4373 29.9521 34.812 31.5844 35.5373C33.2168 36.2625 34.6788 37.3221 35.8761 38.6476C35.9761 38.7624 36.0979 38.8561 36.2345 38.9233C36.371 38.9906 36.5196 39.03 36.6715 39.0393C36.8234 39.0486 36.9757 39.0276 37.1194 38.9775C37.2632 38.9274 37.3955 38.8493 37.5087 38.7476C37.622 38.6458 37.7139 38.5226 37.7791 38.3851C37.8442 38.2475 37.8814 38.0984 37.8884 37.9463C37.8954 37.7943 37.8722 37.6424 37.8199 37.4994C37.7677 37.3564 37.6875 37.2253 37.5841 37.1136C36.1726 35.548 34.4479 34.2965 32.5218 33.4401C30.5956 32.5838 28.511 32.1417 26.4031 32.1426V32.1426Z" fill="#EE6C4D"/>
</svg>
