<svg xmlns="http://www.w3.org/2000/svg" width="20.436" height="23.48" viewBox="0 0 20.436 23.48">
  <path id="share_15_" data-name="share (15)" d="M16.592,15.794a3.834,3.834,0,0,0-2.842,1.259L7.423,13.134a3.828,3.828,0,0,0,0-2.787L13.75,6.428a3.843,3.843,0,1,0-.739-1.191L6.685,9.156a3.843,3.843,0,1,0,0,5.169l6.327,3.919a3.843,3.843,0,1,0,3.581-2.449ZM14.15,3.844a2.442,2.442,0,1,1,2.442,2.442A2.445,2.445,0,0,1,14.15,3.844ZM3.843,14.182A2.442,2.442,0,1,1,6.284,11.74,2.445,2.445,0,0,1,3.843,14.182ZM14.15,19.637a2.442,2.442,0,1,1,2.442,2.442A2.445,2.445,0,0,1,14.15,19.637Zm0,0" transform="translate(0 -0.001)" fill="#fff"/>
</svg>
