<svg xmlns="http://www.w3.org/2000/svg" width="91.272" height="98.476" viewBox="0 0 91.272 98.476">
  <g id="shipping_2_" data-name="shipping (2)" transform="translate(-0.501 0)">
    <path id="Path_22078" data-name="Path 22078" d="M281.245,203.393l18.409-18.409c-9.923-9.923-15.149-15.149-23.358-23.359h-4.181v2.885H275.1l2.119,2.119-14.329,14.329-2.119-2.118V167.249l2.739-2.739h.885v-2.885h-2.08l-4.428,4.429v13.98Zm-1.986-34.723,16.315,16.315-14.329,14.329L264.93,183Zm0,0" transform="translate(-207.881 -130.539)" fill="#ee6c4d"/>
    <path id="Path_22079" data-name="Path 22079" d="M347.044,228.789l-6.71.151.206,9.2-4.3-.461-.715,6.674,11.9,1.274Zm-8.345,13,.1-.936,4.7.5-.215-9.6.941-.021.239,10.669Zm0,0" transform="translate(-270.586 -184.785)" fill="#ee6c4d"/>
    <path id="Path_22080" data-name="Path 22080" d="M82.9,72.192,44.584,94.311V50.043l3.738-2.156-1.441-2.5-3.739,2.156-11.3-6.515,7.4-4.275a21.772,21.772,0,0,0,7.855,5.2l1-2.706a18.594,18.594,0,0,1-6.264-3.99L56.9,26.56c2.171,3.715,3.191,8.82.286,11.725a5.721,5.721,0,0,1-1.85,1.231l1.116,2.661a8.607,8.607,0,0,0,2.775-1.852c3.936-3.936,3.021-10.318.17-15.207l10.738-6.2,11.316,6.533L72.1,30.845l1.441,2.5L82.9,27.95V44.242h2.886V24.621L43.142,0,.5,24.621V73.858l42.64,24.618L85.782,73.858v-9.21H82.9v7.544ZM17.589,36.14,27.5,41.853v8.47l-9.908-5.645Zm11.366,3.224-9.913-5.717L46.327,17.895a19.085,19.085,0,0,1,8.928,6.285Zm8.662-19.772a5.984,5.984,0,0,1,3.654-2.11Zm20.163,3.13a22.867,22.867,0,0,0-8.249-6.678l7.813-4.51,9.908,5.72ZM54.46,9.867,45.91,14.8C39.1,13.3,34.448,16.795,33.533,21.95L16.155,31.983,4.83,25.453,43.142,3.331ZM3.386,27.951,14.7,34.477V46.355l15.678,8.932V43.517L41.7,50.043V94.311L3.386,72.192Zm0,0" fill="#ee6c4d"/>
    <path id="Path_22081" data-name="Path 22081" d="M76.639,392.118l-5-2.885,1.443-2.5,5,2.885Zm-6.663-3.847-2.5-1.443,1.443-2.5,2.5,1.443Zm-4.165-2.4-2.5-1.443,1.443-2.5,2.5,1.443Zm0,0" transform="translate(-50.731 -308.468)" fill="#ee6c4d"/>
  </g>
</svg>
