<svg width="53" height="53" viewBox="0 0 53 53" fill="none" xmlns="http://www.w3.org/2000/svg">
<path d="M26.4029 1.14844C31.3979 1.14844 36.2807 2.62962 40.4339 5.40467C44.587 8.17973 47.824 12.124 49.7355 16.7388C51.647 21.3535 52.1471 26.4315 51.1727 31.3304C50.1982 36.2294 47.7929 40.7294 44.2609 44.2614C40.729 47.7934 36.2289 50.1987 31.33 51.1732C26.431 52.1476 21.353 51.6475 16.7383 49.736C12.1235 47.8245 8.17924 44.5875 5.40418 40.4344C2.62913 36.2812 1.14795 31.3984 1.14795 26.4034C1.14795 19.7054 3.80874 13.2817 8.54497 8.54546C13.2812 3.80922 19.7049 1.14844 26.4029 1.14844V1.14844ZM37.8829 21.8114C37.8829 21.3565 37.7481 20.9119 37.4953 20.5336C37.2426 20.1554 36.8834 19.8606 36.4631 19.6865C36.0428 19.5124 35.5804 19.4669 35.1342 19.5556C34.6881 19.6444 34.2783 19.8634 33.9566 20.1851C33.6349 20.5068 33.4159 20.9166 33.3271 21.3627C33.2384 21.8089 33.2839 22.2713 33.458 22.6916C33.6321 23.1119 33.9269 23.4711 34.3051 23.7238C34.6834 23.9765 35.1281 24.1114 35.583 24.1114C36.1928 24.1112 36.7775 23.8687 37.2086 23.4374C37.6398 23.0061 37.882 22.4213 37.882 21.8114H37.8829ZM19.5159 21.8114C19.5159 21.3565 19.3811 20.9119 19.1283 20.5336C18.8756 20.1554 18.5164 19.8606 18.0961 19.6865C17.6759 19.5124 17.2134 19.4669 16.7672 19.5556C16.3211 19.6444 15.9113 19.8634 15.5896 20.1851C15.2679 20.5068 15.0489 20.9166 14.9601 21.3627C14.8714 21.8089 14.9169 22.2713 15.091 22.6916C15.2651 23.1119 15.5599 23.4711 15.9381 23.7238C16.3164 23.9765 16.7611 24.1114 17.216 24.1114C17.8258 24.1112 18.4105 23.8687 18.8416 23.4374C19.2728 23.0061 19.5149 22.4213 19.5149 21.8114H19.5159Z" fill="#FFE5DF"/>
<path d="M37.8827 21.8156C37.8827 22.2709 37.7476 22.7159 37.4945 23.0943C37.2415 23.4727 36.8818 23.7675 36.461 23.9413C36.0403 24.1152 35.5774 24.1602 35.1311 24.0708C34.6847 23.9814 34.2749 23.7616 33.9535 23.4391C33.6322 23.1167 33.4138 22.7061 33.3259 22.2594C33.2381 21.8127 33.2848 21.35 33.4601 20.9299C33.6354 20.5098 33.9314 20.1511 34.3107 19.8994C34.69 19.6476 35.1355 19.5141 35.5907 19.5156C36.1993 19.5178 36.7823 19.761 37.2119 20.1921C37.6415 20.6232 37.8827 21.207 37.8827 21.8156V21.8156Z" fill="#FFE5DF"/>
<path d="M19.515 21.8156C19.515 22.2709 19.3799 22.7159 19.1269 23.0943C18.8738 23.4727 18.5141 23.7675 18.0934 23.9413C17.6726 24.1152 17.2098 24.1602 16.7634 24.0708C16.317 23.9814 15.9072 23.7616 15.5859 23.4391C15.2645 23.1167 15.0461 22.7061 14.9583 22.2594C14.8704 21.8127 14.9171 21.35 15.0924 20.9299C15.2677 20.5098 15.5638 20.1511 15.9431 19.8994C16.3223 19.6476 16.7678 19.5141 17.223 19.5156C17.8317 19.5178 18.4146 19.761 18.8442 20.1921C19.2738 20.6232 19.515 21.207 19.515 21.8156V21.8156Z" fill="#FFE5DF"/>
<path d="M26.4 0C21.1786 0 16.0744 1.54833 11.733 4.4492C7.3915 7.35007 4.00775 11.4732 2.00959 16.2972C0.0114387 21.1211 -0.511369 26.4293 0.50728 31.5504C1.52593 36.6715 4.04029 41.3755 7.73239 45.0676C11.4245 48.7597 16.1285 51.2741 21.2496 52.2927C26.3707 53.3114 31.6789 52.7886 36.5029 50.7904C41.3268 48.7923 45.4499 45.4085 48.3508 41.0671C51.2517 36.7256 52.8 31.6214 52.8 26.4C52.7913 19.401 50.0071 12.6911 45.058 7.74203C40.1089 2.79296 33.399 0.00873243 26.4 0V0ZM26.4 50.51C21.6324 50.5094 16.9719 49.0951 13.008 46.446C9.04409 43.7968 5.9547 40.0318 4.13047 35.627C2.30624 31.2221 1.8291 26.3752 2.75937 21.6992C3.68964 17.0232 5.98554 12.728 9.35679 9.35678C12.728 5.98553 17.0232 3.68963 21.6992 2.75936C26.3753 1.82909 31.2221 2.30623 35.627 4.13046C40.0318 5.95469 43.7969 9.04408 46.446 13.008C49.0951 16.9719 50.5094 21.6323 50.51 26.4C50.5039 32.7925 47.9618 38.9214 43.4416 43.4416C38.9214 47.9618 32.7925 50.5039 26.4 50.51V50.51Z" fill="#EE6C4D"/>
<path d="M20.6629 21.8112C20.6629 21.13 20.4609 20.4642 20.0825 19.8978C19.7041 19.3314 19.1662 18.89 18.5369 18.6293C17.9076 18.3687 17.2151 18.3005 16.547 18.4334C15.8789 18.5663 15.2653 18.8943 14.7836 19.3759C14.302 19.8576 13.974 20.4712 13.8411 21.1393C13.7082 21.8074 13.7764 22.4998 14.0371 23.1292C14.2977 23.7585 14.7392 24.2963 15.3055 24.6748C15.8719 25.0532 16.5377 25.2552 17.2189 25.2552C18.132 25.2541 19.0074 24.8909 19.653 24.2453C20.2987 23.5996 20.6618 22.7243 20.6629 21.8112V21.8112ZM16.0709 21.8112C16.0709 21.5841 16.1382 21.3622 16.2644 21.1734C16.3905 20.9846 16.5698 20.8375 16.7796 20.7506C16.9894 20.6637 17.2202 20.641 17.4429 20.6852C17.6656 20.7295 17.8701 20.8389 18.0307 20.9994C18.1912 21.16 18.3005 21.3645 18.3448 21.5872C18.3891 21.8099 18.3664 22.0407 18.2795 22.2505C18.1926 22.4603 18.0455 22.6396 17.8567 22.7657C17.6679 22.8919 17.446 22.9592 17.2189 22.9592C16.9153 22.9576 16.6246 22.836 16.4103 22.621C16.196 22.4059 16.0754 22.1148 16.0749 21.8112H16.0709Z" fill="#EE6C4D"/>
<path d="M35.5871 18.3672C34.9059 18.3672 34.24 18.5692 33.6737 18.9476C33.1073 19.326 32.6659 19.8639 32.4052 20.4932C32.1446 21.1225 32.0764 21.815 32.2092 22.4831C32.3421 23.1511 32.6701 23.7648 33.1518 24.2465C33.6334 24.7281 34.2471 25.0561 34.9152 25.189C35.5832 25.3219 36.2757 25.2537 36.905 24.993C37.5343 24.7324 38.0722 24.2909 38.4506 23.7246C38.8291 23.1582 39.0311 22.4923 39.0311 21.8112C39.03 20.8981 38.6668 20.0227 38.0212 19.3771C37.3755 18.7314 36.5001 18.3682 35.5871 18.3672ZM35.5871 22.9592C35.36 22.9592 35.1381 22.8919 34.9493 22.7657C34.7605 22.6396 34.6133 22.4603 34.5265 22.2505C34.4396 22.0407 34.4168 21.8099 34.4611 21.5872C34.5054 21.3645 34.6148 21.16 34.7753 20.9994C34.9359 20.8389 35.1404 20.7295 35.3631 20.6852C35.5858 20.641 35.8166 20.6637 36.0264 20.7506C36.2362 20.8375 36.4155 20.9846 36.5416 21.1734C36.6677 21.3622 36.7351 21.5841 36.7351 21.8112C36.7345 22.1155 36.6134 22.4072 36.3982 22.6224C36.1831 22.8375 35.8914 22.9587 35.5871 22.9592V22.9592Z" fill="#EE6C4D"/>
<path d="M35.8782 32.5248C34.6835 33.8531 33.2222 34.9146 31.5896 35.64C29.957 36.3655 28.1897 36.7385 26.4032 36.7348C24.6162 36.7366 22.8487 36.3626 21.2155 35.6371C19.5823 34.9117 18.1199 33.851 16.9232 32.5238C16.7164 32.3111 16.4352 32.1867 16.1386 32.1767C15.8421 32.1668 15.5532 32.2721 15.3326 32.4705C15.1119 32.6688 14.9767 32.945 14.9552 33.2409C14.9337 33.5368 15.0276 33.8296 15.2172 34.0578C16.6291 35.6241 18.3544 36.8761 20.2813 37.7326C22.2081 38.5891 24.2935 39.0311 26.4022 39.0298C28.5118 39.033 30.5984 38.5917 32.5261 37.7346C34.4538 36.8776 36.1793 35.6241 37.5902 34.0558C37.7814 33.8271 37.8762 33.533 37.8546 33.2357C37.833 32.9384 37.6967 32.6611 37.4745 32.4624C37.2523 32.2637 36.9616 32.1592 36.6638 32.1708C36.3659 32.1824 36.0842 32.3094 35.8782 32.5248V32.5248Z" fill="#EE6C4D"/>
</svg>
