<svg xmlns="http://www.w3.org/2000/svg" width="29.207" height="27.495" viewBox="0 0 29.207 27.495">
  <path id="snapchat" d="M28.63,21.129c-.158-.037-.318-.063-.473-.108A8.368,8.368,0,0,1,22.744,15.9a1.269,1.269,0,0,1-.155-.448.938.938,0,0,1,.569-.762c.383-.217.858-.345,1.256-.538a7.919,7.919,0,0,0,1.512-.82.926.926,0,0,0-.144-1.568,1.745,1.745,0,0,0-.971-.306,1.956,1.956,0,0,0-.686.132,6.508,6.508,0,0,1-1.279.317.59.59,0,0,1-.09.007c-.215,0-.322-.14-.3-.444.071-1.2.138-2.409.138-3.6A6.728,6.728,0,0,0,19.9,2.283,8.094,8.094,0,0,0,14.888.5a9.529,9.529,0,0,0-3.9.793A6.558,6.558,0,0,0,6.716,7.105c-.03.4-.042.806-.042,1.211,0,1.027.068,2.076.109,3.112.013.333-.089.488-.335.488a.747.747,0,0,1-.1-.007,6.546,6.546,0,0,1-1.328-.334,1.844,1.844,0,0,0-.634-.121,1.586,1.586,0,0,0-.8.223.964.964,0,0,0-.148,1.716,7.561,7.561,0,0,0,1.387.721c.365.169.769.3,1.124.488a.947.947,0,0,1,.612.9,1.456,1.456,0,0,1-.128.516A8.73,8.73,0,0,1,5.819,17.2a7.8,7.8,0,0,1-5.264,3.93A.766.766,0,0,0,0,21.721v.067a1.5,1.5,0,0,0,1,1.035,23.624,23.624,0,0,0,2.282.66c.7.164.707.13.856.821.2.916.31,1.185.881,1.185a4.586,4.586,0,0,0,.769-.131A7.151,7.151,0,0,1,7.215,25.2h.029a4.812,4.812,0,0,1,3.121,1.137,8.108,8.108,0,0,0,1.458.943,6.132,6.132,0,0,0,2.8.712,6.009,6.009,0,0,0,2.786-.715A16.309,16.309,0,0,0,19.372,26a4.017,4.017,0,0,1,2.446-.741h.029q.253,0,.513.024c.509.043,1.014.125,1.522.184a2.7,2.7,0,0,0,.307.021c.468,0,.631-.2.775-.785.057-.236.121-.471.163-.709a.552.552,0,0,1,.481-.453c.924-.23,1.845-.484,2.745-.794a1.6,1.6,0,0,0,.717-.617A.618.618,0,0,0,28.63,21.129Zm-5.6,1.93c-.155-.018-.313-.035-.476-.049-.237-.02-.471-.031-.7-.032h-.04a6.256,6.256,0,0,0-3.776,1.168l-.114.082a13.527,13.527,0,0,1-1.569,1.026,3.725,3.725,0,0,1-1.736.459,3.846,3.846,0,0,1-1.765-.463,5.79,5.79,0,0,1-1.045-.674,7.074,7.074,0,0,0-4.557-1.655H7.215a8.871,8.871,0,0,0-1.093.07,2.487,2.487,0,0,0-1.207-1.354,11.9,11.9,0,0,0,2.842-3.228,11.008,11.008,0,0,0,.775-1.494,3.725,3.725,0,0,0,.31-1.334,3.087,3.087,0,0,0-.65-2.034q.073-.065.14-.135a2.737,2.737,0,0,0,.733-2.075c-.012-.3-.026-.6-.04-.9C8.988,9.7,8.956,9,8.956,8.316c0-.379.012-.72.036-1.039A4.278,4.278,0,0,1,11.869,3.4a7.29,7.29,0,0,1,3.02-.616,5.8,5.8,0,0,1,3.623,1.311,4.466,4.466,0,0,1,1.8,3.776c0,1.11-.064,2.271-.134,3.462a2.679,2.679,0,0,0,.7,2.063q.068.072.141.138a2.951,2.951,0,0,0-.711,1.908,3.04,3.04,0,0,0,.32,1.312l.023.051A11.628,11.628,0,0,0,24.3,21.62a2.754,2.754,0,0,0-1.268,1.438Zm0,0" transform="translate(0 -0.5)"/>
</svg>
