<svg xmlns="http://www.w3.org/2000/svg" width="23.71" height="26.959" viewBox="0 0 23.71 26.959">
  <path id="tik-tok" d="M53.456,6.267A5.206,5.206,0,0,1,48.248,1.08L48.243,0H42.133V18.232a2.684,2.684,0,0,1-1.843,2.544,2.722,2.722,0,0,1-.848.137,2.692,2.692,0,0,1-1.048-5.172,2.66,2.66,0,0,1,1.048-.211,2.722,2.722,0,0,1,.848.137l.211.068V9.543a8.535,8.535,0,0,0-.969-.053,9.037,9.037,0,0,0-1.138.074,8.735,8.735,0,0,0,1.138,17.4,9.1,9.1,0,0,0,1.311-.095A8.669,8.669,0,0,0,45.709,24.4,8.825,8.825,0,0,0,48.3,18.264V11.1a8.036,8.036,0,0,0,.769.374,21.278,21.278,0,0,0,4.408.9H54.51V6.267ZM52.4,10.2a9.189,9.189,0,0,1-4.566-1.843l-1.7-1.306V18.254a6.64,6.64,0,0,1-5.635,6.53,6.993,6.993,0,0,1-1,.074,6.638,6.638,0,0,1-1.111-13.182v1.943A4.722,4.722,0,0,0,39.5,22.935a4.65,4.65,0,0,0,1.49-.242,4.716,4.716,0,0,0,3.244-4.471V2.107H46.21A7.329,7.329,0,0,0,52.4,8.279V10.2Z" transform="translate(-30.8)"/>
</svg>
