<svg xmlns="http://www.w3.org/2000/svg" width="32.042" height="26.039" viewBox="0 0 32.042 26.039">
  <path id="twitter" d="M32.042,3.066a13.333,13.333,0,0,1-3.817,1A6.563,6.563,0,0,0,31.1.438a12.954,12.954,0,0,1-4.121,1.627A6.46,6.46,0,0,0,22.279,0a6.624,6.624,0,0,0-6.7,6.571,6.614,6.614,0,0,0,.2,1.5A18.627,18.627,0,0,1,2.253,1.189a6.653,6.653,0,0,0-.939,3.317A6.562,6.562,0,0,0,4.256,9.95a6.531,6.531,0,0,1-3-.751v.12a6.49,6.49,0,0,0,5.319,6.326,7.464,7.464,0,0,1-1.809.253H4.756a7.024,7.024,0,0,1-1.314-.127,6.93,6.93,0,0,0,6.321,4.694,14.749,14.749,0,0,1-8.2,2.691A13.368,13.368,0,0,1,0,23.092a18.606,18.606,0,0,0,10.051,2.941h.025v.005c12.015,0,18.711-10.02,18.711-18.708,0-.285-.043-.6-.063-.885a13.428,13.428,0,0,0,3.317-3.379Zm-6.83,9.969a16.88,16.88,0,0,1-3.149,5.249,15.322,15.322,0,0,1-5.047,3.782,16.227,16.227,0,0,1-6.475,1.463h-.489q-.2,0-.406-.005a12.355,12.355,0,0,0,1.664-1.093,6.92,6.92,0,0,0,2.083-4.4,19.885,19.885,0,0,1-2.253.12,6.226,6.226,0,0,1-2.63-.437,4.967,4.967,0,0,0,2.959-3.63,11.88,11.88,0,0,1-6.047-1.591A6.484,6.484,0,0,0,8.511,10.2,11.564,11.564,0,0,1,4.454,6.659a21.116,21.116,0,0,0,11.2,3.909l3.309.133-.684-2.937-.128-.583a3.413,3.413,0,0,1-.064-.607A4.121,4.121,0,0,1,22.279,2.5a3.927,3.927,0,0,1,2.348.8,4.936,4.936,0,0,1,1.658,4.027,16.355,16.355,0,0,1-1.073,5.7Zm0,0"/>
</svg>
