<svg xmlns="http://www.w3.org/2000/svg" width="27.391" height="25.809" viewBox="0 0 27.391 25.809">
  <path id="wallet_18_" data-name="wallet (18)" d="M8.2,11.74c.269-1.912,1.143-2.634,2.971-2.634h16.47a1.053,1.053,0,0,1,1.006,1.053v1.58Zm22.554.047V10.16A3.16,3.16,0,0,0,27.641,7H11.171C6.588,7,6.067,10.734,6,12.673a.237.237,0,0,0,0,.058V29.649a3.16,3.16,0,0,0,3.16,3.16H30.227a3.16,3.16,0,0,0,3.16-3.16V14.9a3.16,3.16,0,0,0-2.634-3.113ZM27.33,24.908a2.365,2.365,0,1,1,1.678-.693A2.37,2.37,0,0,1,27.33,24.908Z" transform="translate(-5.997 -7)" fill="#ee6c4d"/>
</svg>
