<svg id="whatsapp" xmlns="http://www.w3.org/2000/svg" width="29.463" height="29.491" viewBox="0 0 29.463 29.491">
  <path id="Path_22093" data-name="Path 22093" d="M25.109,4.283a14.74,14.74,0,0,0-20.772,0A14.468,14.468,0,0,0,0,14.609v.007a14.542,14.542,0,0,0,1.794,6.9L.04,29.491l8.065-1.834a14.761,14.761,0,0,0,6.62,1.573h.006A14.692,14.692,0,0,0,25.125,24.95a14.458,14.458,0,0,0-.015-20.667ZM14.731,26.928h-.005a12.441,12.441,0,0,1-5.914-1.5l-.381-.207-5.363,1.22,1.165-5.294-.225-.387A12.3,12.3,0,0,1,2.3,14.614a12.425,12.425,0,0,1,21.183-8.7,12.235,12.235,0,0,1,3.676,8.706,12.387,12.387,0,0,1-12.43,12.308Zm0,0" transform="translate(0)"/>
  <path id="Path_22094" data-name="Path 22094" d="M141.59,141.863h-.646a1.24,1.24,0,0,0-.9.42,3.76,3.76,0,0,0-1.179,2.8,6.522,6.522,0,0,0,1.376,3.473c.169.224,2.331,3.723,5.756,5.069,2.846,1.119,3.426.9,4.043.84a3.4,3.4,0,0,0,2.275-1.6,2.8,2.8,0,0,0,.2-1.6c-.084-.14-.309-.224-.646-.392s-1.989-.994-2.3-1.107-.533-.168-.758.169-.887,1.112-1.083,1.337-.393.252-.73.084a9.317,9.317,0,0,1-2.7-1.673,10.325,10.325,0,0,1-1.894-2.362c-.2-.336-.021-.518.148-.685.151-.15.356-.356.524-.552a2.271,2.271,0,0,0,.329-.56.616.616,0,0,0-.028-.588c-.084-.168-.731-1.829-1.031-2.493h0C142.1,141.892,141.83,141.873,141.59,141.863Zm0,0" transform="translate(-130.868 -133.692)"/>
</svg>
