<svg xmlns="http://www.w3.org/2000/svg" width="23.666" height="23.62" viewBox="0 0 23.666 23.62">
  <path id="_008-maps" data-name="008-maps" d="M13.655,24.12H5.536A5.542,5.542,0,0,1,0,18.584V6.036A5.542,5.542,0,0,1,5.536.5H18.084A5.542,5.542,0,0,1,23.62,6.036V10.7a.923.923,0,0,1-1.845,0V6.036a3.7,3.7,0,0,0-3.691-3.691H5.536A3.7,3.7,0,0,0,1.845,6.036V18.584a3.7,3.7,0,0,0,3.691,3.691h8.119A.923.923,0,0,1,13.655,24.12Zm-1.145-15.5,2.858-2.858a.923.923,0,0,0-1.3-1.3L11.206,7.319a.923.923,0,0,1-1.307,0L7.067,4.463a.923.923,0,1,0-1.31,1.3L8.589,8.616a2.749,2.749,0,0,0,1.959.818h.005a2.75,2.75,0,0,0,1.957-.811ZM5.316,15.818,7.3,13.808a2.777,2.777,0,0,0-.007-3.894L5.314,7.923A.923.923,0,1,0,4,9.223l1.977,1.991a.926.926,0,0,1,0,1.3L4,14.523a.923.923,0,1,0,1.314,1.3Zm15.341,7.367c2-2.535,3.009-4.468,3.009-5.747a4.936,4.936,0,1,0-9.873,0c0,1.279,1.012,3.212,3.009,5.747a2.453,2.453,0,0,0,3.854,0Zm-.725-.571h0Zm1.889-5.176c0,.622-.687,2.159-2.613,4.6a.6.6,0,0,1-.955,0c-1.927-2.446-2.613-3.983-2.613-4.6a3.091,3.091,0,1,1,6.182,0ZM5.582,20.43a.925.925,0,0,1-.652-1.575L18.355,5.43a.923.923,0,1,1,1.3,1.3L6.235,20.159a.92.92,0,0,1-.652.27Zm11.995-3.091a1.153,1.153,0,1,0,1.153-1.153A1.153,1.153,0,0,0,17.577,17.339Z" transform="translate(0 -0.5)"/>
</svg>
