<svg xmlns="http://www.w3.org/2000/svg" width="33.738" height="30.575" viewBox="0 0 33.738 30.575">
  <g id="_x32_4_Copyright_expiry" transform="translate(0 -3)">
    <g id="Group_60027" data-name="Group 60027" transform="translate(0 3)">
      <path id="Path_21514" data-name="Path 21514" d="M13.326,27.527A.527.527,0,0,0,12.8,27H7.527A.527.527,0,0,0,7,27.527V32.8a.527.527,0,0,0,.527.527H12.8a.527.527,0,0,0,.527-.527Zm-1.054,4.744H8.054V28.054h4.217Z" transform="translate(-3.31 -14.348)"/>
      <path id="Path_21515" data-name="Path 21515" d="M26.885,32.195a.527.527,0,0,0-.527.527v1.054a1.583,1.583,0,0,1-1.581,1.581H2.636a1.583,1.583,0,0,1-1.581-1.581V16.38H23.722a.527.527,0,1,0,0-1.054H1.054v-3.69a1.583,1.583,0,0,1,1.581-1.581h.527A.527.527,0,1,0,3.163,9H2.636A2.639,2.639,0,0,0,0,11.636V33.776a2.639,2.639,0,0,0,2.636,2.636H24.776a2.639,2.639,0,0,0,2.636-2.636V32.722A.527.527,0,0,0,26.885,32.195Z" transform="translate(0 -5.837)"/>
      <path id="Path_21516" data-name="Path 21516" d="M45.527,10.054h.527a1.583,1.583,0,0,1,1.581,1.581v4.217a.527.527,0,0,0,1.054,0V11.636A2.639,2.639,0,0,0,46.054,9h-.527a.527.527,0,1,0,0,1.054Z" transform="translate(-21.278 -5.837)"/>
      <path id="Path_21517" data-name="Path 21517" d="M47.137,25.39a.527.527,0,1,0-.351.993,5.8,5.8,0,0,1-1.933,11.269,5.725,5.725,0,0,1-2.7-.668.532.532,0,0,0-.357-.049l-2.539.547.626-2.337a.528.528,0,0,0-.053-.4,5.79,5.79,0,0,1,5.02-8.69.527.527,0,1,0,0-1.054,6.845,6.845,0,0,0-6.041,10.078l-.794,2.964a.527.527,0,0,0,.509.664.569.569,0,0,0,.111-.012l3.2-.689a6.853,6.853,0,1,0,5.3-12.615Z" transform="translate(-17.968 -13.403)"/>
      <path id="Path_21518" data-name="Path 21518" d="M11.109,10.38a2.111,2.111,0,0,0,2.109-2.109V7.217h9.489V8.272a2.109,2.109,0,1,0,4.217,0V5.109a2.109,2.109,0,1,0-4.217,0V6.163H13.217V5.109A2.109,2.109,0,1,0,9,5.109V8.272A2.111,2.111,0,0,0,11.109,10.38ZM23.76,5.109a1.054,1.054,0,1,1,2.109,0V8.272a1.054,1.054,0,1,1-2.109,0Zm-13.706,0a1.054,1.054,0,1,1,2.109,0V8.272a1.054,1.054,0,0,1-2.109,0Z" transform="translate(-4.256 -3)"/>
      <path id="Path_21519" data-name="Path 21519" d="M29.326,32.8V27.527A.527.527,0,0,0,28.8,27H23.527a.527.527,0,0,0-.527.527V32.8a.527.527,0,0,0,.527.527H28.8A.527.527,0,0,0,29.326,32.8Zm-1.054-.527H24.054V28.054h4.217Z" transform="translate(-10.875 -14.348)"/>
      <path id="Path_21520" data-name="Path 21520" d="M12.8,42H7.527A.527.527,0,0,0,7,42.527V47.8a.527.527,0,0,0,.527.527H12.8a.527.527,0,0,0,.527-.527V42.527A.527.527,0,0,0,12.8,42Zm-.527,5.272H8.054V43.054h4.217Z" transform="translate(-3.31 -21.441)"/>
      <path id="Path_21521" data-name="Path 21521" d="M43,34.217A4.217,4.217,0,1,0,47.217,30,4.222,4.222,0,0,0,43,34.217Zm7.38,0a3.163,3.163,0,1,1-3.163-3.163A3.166,3.166,0,0,1,50.38,34.217Z" transform="translate(-20.332 -15.767)"/>
      <path id="Path_21522" data-name="Path 21522" d="M47.391,36.109a2.1,2.1,0,0,0,3.67,1.407.527.527,0,1,0-.783-.705,1.039,1.039,0,0,1-.778.353,1.054,1.054,0,0,1,0-2.109,1.039,1.039,0,0,1,.778.353.527.527,0,0,0,.783-.705,2.1,2.1,0,0,0-3.67,1.407Z" transform="translate(-22.408 -17.658)"/>
      <path id="Path_21523" data-name="Path 21523" d="M29.054,42.527a.527.527,0,1,0-1.054,0V45.69a.527.527,0,1,0,1.054,0Z" transform="translate(-13.24 -21.441)"/>
      <ellipse id="Ellipse_2993" data-name="Ellipse 2993" cy="1.406" ry="1.406" transform="translate(15.463 25.304)"/>
    </g>
  </g>
</svg>
