<svg xmlns="http://www.w3.org/2000/svg" width="26.219" height="19.972" viewBox="0 0 26.219 19.972">
  <g id="email_5_" data-name="email (5)" transform="translate(0)">
    <g id="Group_55619" data-name="Group 55619" transform="translate(0)">
      <path id="Path_17991" data-name="Path 17991" d="M23.914,61H2.3A2.308,2.308,0,0,0,0,63.3V78.667a2.308,2.308,0,0,0,2.3,2.3h21.61a2.308,2.308,0,0,0,2.3-2.3V63.3A2.308,2.308,0,0,0,23.914,61ZM23.6,62.536,13.158,72.974,2.63,62.536ZM1.536,78.349V63.615l7.4,7.335Zm1.086,1.086,7.4-7.4L12.62,74.6a.768.768,0,0,0,1.084,0l2.529-2.529L23.6,79.435Zm22.06-1.086-7.363-7.363,7.363-7.363Z" transform="translate(0 -61)"/>
    </g>
  </g>
</svg>
