<svg xmlns="http://www.w3.org/2000/svg" width="112.067" height="88.621" viewBox="0 0 112.067 88.621">
  <g id="folder" transform="translate(0 -42.679)">
    <g id="Group_62482" data-name="Group 62482" transform="translate(0 54.391)">
      <g id="Group_62481" data-name="Group 62481" transform="translate(0 0)">
        <path id="Path_22036" data-name="Path 22036" d="M91.191,95.372H50.76l-8.042-9.559a1.374,1.374,0,0,0-1.1-.494H9a9.064,9.064,0,0,0-9,9.064v58.791a9.064,9.064,0,0,0,9.053,9.053H91.191a9.064,9.064,0,0,0,9.053-9.053V104.425A9.064,9.064,0,0,0,91.191,95.372Z" transform="translate(0 -85.319)" fill="#ee6c4d"/>
      </g>
    </g>
    <g id="Group_62484" data-name="Group 62484" transform="translate(11.921 42.679)">
      <g id="Group_62483" data-name="Group 62483" transform="translate(0 0)">
        <path id="Path_22037" data-name="Path 22037" d="M134.547,52.732H94.1l-8.042-9.559a1.374,1.374,0,0,0-1.1-.494H52.354A9.053,9.053,0,0,0,43.4,50.5H73.142a5.263,5.263,0,0,1,4.043,1.879l6.867,8.163h38.619a12.965,12.965,0,0,1,12.943,12.943V119.5a9.053,9.053,0,0,0,7.933-8.976V61.774A9.064,9.064,0,0,0,134.547,52.732Z" transform="translate(-43.4 -42.679)" fill="#ee6c4d"/>
      </g>
    </g>
  </g>
</svg>
