<svg xmlns="http://www.w3.org/2000/svg" width="27.323" height="27.323" viewBox="0 0 27.323 27.323">
  <path id="instagram" d="M13.931,27.325h-.272c-2.142.005-4.121-.049-6.045-.166a8.081,8.081,0,0,1-4.658-1.763A7.477,7.477,0,0,1,.443,21.339a17.973,17.973,0,0,1-.412-4.292C.017,16.049,0,14.867,0,13.665s.017-2.389.031-3.386A17.975,17.975,0,0,1,.443,5.987,7.477,7.477,0,0,1,2.956,1.931,8.081,8.081,0,0,1,7.614.168C9.538.051,11.518,0,13.664,0s4.121.049,6.045.166a8.081,8.081,0,0,1,4.658,1.763A7.476,7.476,0,0,1,26.88,5.987a17.974,17.974,0,0,1,.412,4.292c.014,1,.028,2.179.031,3.381v.005c0,1.2-.017,2.384-.031,3.381a17.964,17.964,0,0,1-.412,4.292,7.475,7.475,0,0,1-2.512,4.056,8.081,8.081,0,0,1-4.658,1.763c-1.843.112-3.736.167-5.778.167Zm-.272-2.135c2.107.005,4.041-.048,5.921-.162a5.88,5.88,0,0,0,3.439-1.287,5.389,5.389,0,0,0,1.793-2.929,16.352,16.352,0,0,0,.346-3.793c.014-.991.028-2.164.031-3.355s-.017-2.364-.031-3.355a16.354,16.354,0,0,0-.346-3.793,5.389,5.389,0,0,0-1.793-2.929A5.881,5.881,0,0,0,19.58,2.3c-1.879-.114-3.814-.167-5.916-.163s-4.041.048-5.921.163A5.881,5.881,0,0,0,4.3,3.585,5.389,5.389,0,0,0,2.512,6.515a16.353,16.353,0,0,0-.346,3.793c-.014.992-.028,2.166-.031,3.357s.017,2.361.031,3.352a16.352,16.352,0,0,0,.346,3.793A5.389,5.389,0,0,0,4.3,23.74a5.881,5.881,0,0,0,3.439,1.287C9.623,25.141,11.558,25.195,13.659,25.19Zm-.051-4.856a6.671,6.671,0,1,1,6.671-6.671A6.678,6.678,0,0,1,13.608,20.334Zm0-11.207a4.536,4.536,0,1,0,4.536,4.536A4.541,4.541,0,0,0,13.608,9.127Zm7.418-4.269a1.6,1.6,0,1,0,1.6,1.6A1.6,1.6,0,0,0,21.026,4.858Zm0,0" transform="translate(0 -0.001)"/>
</svg>
