<svg xmlns="http://www.w3.org/2000/svg" width="29.795" height="28.46" viewBox="0 0 29.795 28.46">
  <g id="office-building" transform="translate(0 0)">
    <path id="Path_21495" data-name="Path 21495" d="M26.929,33.019c-.233,0-.207-.009-.516.013V25.8a1.406,1.406,0,0,0-1.4-1.4H17.375v-10.9l3.348,3.236a.981.981,0,0,1,.3.7v5.34a.436.436,0,0,0,.873,0v-5.34a1.859,1.859,0,0,0-.564-1.33l-4.088-3.952a.446.446,0,0,0-.442-.1L9.466,14.516v-1.7A1.371,1.371,0,0,0,8.03,11.473a1.346,1.346,0,0,0-1.344,1.344V15.45L4.767,16.1a1.848,1.848,0,0,0-1.26,1.753V33.021A3.6,3.6,0,0,0,0,36.619v2.219a1.094,1.094,0,0,0,1.093,1.093H28.7A1.094,1.094,0,0,0,29.8,38.838V35.885a2.87,2.87,0,0,0-2.866-2.866Zm0,.873a2,2,0,0,1,1.994,1.994v.458H24.689v-.458A2.033,2.033,0,0,1,26.929,33.892ZM25.54,25.8v7.46a2.87,2.87,0,0,0-1.724,2.628v.458H17.375V25.266h7.633a.532.532,0,0,1,.531.531ZM7.559,12.817a.472.472,0,0,1,.471-.471.51.51,0,0,1,.563.471v1.993l-1.034.348ZM3.507,33.893v2.45H.887A2.732,2.732,0,0,1,3.507,33.893ZM.873,38.839V37.216H3.507v1.842H1.093a.22.22,0,0,1-.22-.22ZM4.38,17.848a.975.975,0,0,1,.665-.925L16.5,13.072V15.45l-9.519,3.2a.436.436,0,1,0,.278.827L16.5,16.371v2.22l-9.519,3.2a.436.436,0,1,0,.278.827L16.5,19.512v2.22l-9.519,3.2a.436.436,0,1,0,.278.827L16.5,22.654v2.22l-9.519,3.2a.436.436,0,1,0,.278.827L16.5,25.795v2.22l-5.944,2a.436.436,0,1,0,.278.827l5.666-1.9V39.058H12.732V34.523a.942.942,0,0,0-1.2-.908L7.474,34.749a1.08,1.08,0,0,0-.787,1.037v3.271H4.38ZM7.559,35.787a.2.2,0,0,1,.149-.2l1.564-.437v3.9H7.559V35.787Zm2.586,3.271V34.91l1.625-.454a.069.069,0,0,1,.088.067v4.535Zm7.23,0V37.216h6.441v1.842Zm11.547-.22a.22.22,0,0,1-.22.22H24.689V37.216h4.234Z" transform="translate(-0.001 -11.471)"/>
    <path id="Path_21496" data-name="Path 21496" d="M115.324,342.414a.436.436,0,0,0,.139-.023l1.62-.545a.436.436,0,1,0-.278-.827l-1.62.545a.437.437,0,0,0,.139.85Z" transform="translate(-108.203 -321.819)"/>
    <path id="Path_21497" data-name="Path 21497" d="M319.505,269.552h4.28a.737.737,0,0,0,.736-.736v-1.051a.737.737,0,0,0-.736-.736h-4.28a.737.737,0,0,0-.736.736v1.051A.737.737,0,0,0,319.505,269.552Zm.137-1.65h4.007v.777h-4.007Z" transform="translate(-300.219 -252.157)"/>
    <path id="Path_21498" data-name="Path 21498" d="M319.505,326.582h4.28a.737.737,0,0,0,.736-.736V324.8a.737.737,0,0,0-.736-.736h-4.28a.737.737,0,0,0-.736.736v1.051A.737.737,0,0,0,319.505,326.582Zm.137-1.65h4.007v.777h-4.007Z" transform="translate(-300.219 -305.868)"/>
    <path id="Path_21499" data-name="Path 21499" d="M319.505,384.195h1.416a.737.737,0,0,0,.736-.736v-1.051a.737.737,0,0,0-.736-.736h-1.416a.737.737,0,0,0-.736.736v1.051A.737.737,0,0,0,319.505,384.195Zm.137-1.65h1.142v.777h-1.142Z" transform="translate(-300.219 -360.128)"/>
  </g>
</svg>
