<svg xmlns="http://www.w3.org/2000/svg" width="14" height="16" viewBox="0 0 14 16">
  <g id="bag-check" transform="translate(-1)">
    <path id="Path_4" data-name="Path 4" d="M10.854,8.146a.5.5,0,0,1,0,.708l-3,3a.5.5,0,0,1-.708,0l-1.5-1.5a.5.5,0,0,1,.708-.708L7.5,10.793l2.646-2.647a.5.5,0,0,1,.708,0Z" fill="#fff" fill-rule="evenodd"/>
    <path id="Path_5" data-name="Path 5" d="M8,1a2.5,2.5,0,0,1,2.5,2.5V4h-5V3.5A2.5,2.5,0,0,1,8,1Zm3.5,3V3.5a3.5,3.5,0,1,0-7,0V4H1V14a2,2,0,0,0,2,2H13a2,2,0,0,0,2-2V4ZM2,5H14v9a1,1,0,0,1-1,1H3a1,1,0,0,1-1-1Z" fill="#fff"/>
  </g>
</svg>
