<svg xmlns="http://www.w3.org/2000/svg" width="16" height="15.001" viewBox="0 0 16 15.001">
  <path id="star_1_" data-name="star (1)" d="M2.866,14.85a.531.531,0,0,0,.746.593L8,13.187l4.389,2.256a.531.531,0,0,0,.746-.592l-.83-4.73,3.522-3.356a.555.555,0,0,0-.282-.95l-4.9-.7L8.465.792a.513.513,0,0,0-.927,0L5.354,5.12l-4.9.7a.556.556,0,0,0-.283.95L3.7,10.122l-.83,4.73Zm4.9-2.767L4.085,13.977l.694-3.957a.565.565,0,0,0-.163-.5L1.71,6.745l4.052-.576a.525.525,0,0,0,.393-.288L8,2.223,9.847,5.881a.525.525,0,0,0,.393.288l4.052.575-2.906,2.77a.565.565,0,0,0-.163.506l.694,3.957L8.231,12.083a.5.5,0,0,0-.461,0Z" transform="translate(-0.001 -0.499)" fill="#1c1f2c"/>
</svg>
