<svg id="settings_9_" data-name="settings (9)" xmlns="http://www.w3.org/2000/svg" width="80.982" height="73.436" viewBox="0 0 80.982 73.436">
  <path id="Path_21489" data-name="Path 21489" d="M79.964,34.117,65.791,9.59A11.01,11.01,0,0,0,56.3,4.1H27.956a11.01,11.01,0,0,0-9.488,5.49L4.295,34.117a11.01,11.01,0,0,0,0,10.98L18.468,69.654a11.01,11.01,0,0,0,9.488,5.49H56.3a11.01,11.01,0,0,0,9.488-5.49L79.964,45.1A11.01,11.01,0,0,0,79.964,34.117Zm-2.6,9.488L63.195,68.162a8,8,0,0,1-6.922,4H27.927a8,8,0,0,1-6.922-4L6.861,43.605a8,8,0,0,1,0-8L21.034,11.082a8,8,0,0,1,6.922-4H56.3a8,8,0,0,1,6.922,4L77.4,35.639a8,8,0,0,1,0,7.967Z" transform="translate(-1.638 -2.904)" fill="#ee6c4d"/>
  <path id="Path_21489_-_Outline" data-name="Path 21489 - Outline" d="M28.794,3.75h28.35A12.25,12.25,0,0,1,67.667,9.837L81.841,34.364a12.247,12.247,0,0,1,0,12.175L67.668,71.1a12.249,12.249,0,0,1-10.52,6.088H28.8A12.25,12.25,0,0,1,18.275,71.1L4.1,46.541a12.246,12.246,0,0,1,0-12.175L18.274,9.838A12.249,12.249,0,0,1,28.794,3.75Zm28.35,71.044A9.846,9.846,0,0,0,65.6,69.9L79.769,45.345a9.845,9.845,0,0,0,0-9.786L65.6,11.035A9.847,9.847,0,0,0,57.14,6.142H28.8a9.848,9.848,0,0,0-8.458,4.894L6.172,35.561a9.845,9.845,0,0,0,0,9.785L20.346,69.9A9.847,9.847,0,0,0,28.8,74.794ZM28.8,6.734H57.144a9.219,9.219,0,0,1,7.958,4.6L79.275,35.887a9.225,9.225,0,0,1,0,9.16l-.345.6H78.9L65.073,69.606a9.219,9.219,0,0,1-7.958,4.6H28.768a9.219,9.219,0,0,1-7.958-4.6L6.666,45.048a9.218,9.218,0,0,1,0-9.192L20.84,11.33A9.218,9.218,0,0,1,28.8,6.734Zm48.67,36.61A6.827,6.827,0,0,0,77.2,37.08L63.03,12.526a6.82,6.82,0,0,0-5.887-3.4H28.8a6.819,6.819,0,0,0-5.886,3.4L8.738,37.053a6.819,6.819,0,0,0,0,6.8L22.882,68.411a6.819,6.819,0,0,0,5.886,3.4H57.114A6.819,6.819,0,0,0,63,68.41Z" transform="translate(-2.48 -3.75)" fill="#ee6c4d"/>
  <path id="Path_21490" data-name="Path 21490" d="M21.217,13.37a7.847,7.847,0,1,0,7.847,7.847A7.847,7.847,0,0,0,21.217,13.37Zm0,12.741a4.877,4.877,0,1,0,0-.03Z" transform="translate(19.273 15.486)" fill="#ee6c4d"/>
  <path id="Path_21490_-_Outline" data-name="Path 21490 - Outline" d="M22.063,13.02h0a9.043,9.043,0,1,1-9.048,9.043A9.1,9.1,0,0,1,22.068,13.02Zm0,15.695a6.651,6.651,0,1,0-6.651-6.651A6.659,6.659,0,0,0,22.063,28.715Zm0-12.681A6.04,6.04,0,0,1,23.26,28v.155h-1.2a6.06,6.06,0,0,1-.025-12.119Zm-.447,9.7.44,0a3.711,3.711,0,0,0,3.675-3.675,3.668,3.668,0,1,0-4.114,3.677Z" transform="translate(18.427 14.64)" fill="#ee6c4d"/>
  <path id="Path_21491" data-name="Path 21491" d="M48.076,25.042H45.839a.537.537,0,0,1-.507-.3c-.149-.418-.328-.806-.507-1.194a.537.537,0,0,1,0-.567L46.405,21.4a3.551,3.551,0,0,0,0-5.043L44.048,14a3.551,3.551,0,0,0-5.043,0l-1.581,1.581a.537.537,0,0,1-.567,0l-1.194-.507a.537.537,0,0,1-.3-.507V12.361A3.551,3.551,0,0,0,31.815,8.81H28.652A3.551,3.551,0,0,0,25.1,12.361v2.208a.537.537,0,0,1-.3.507l-1.194.507a.537.537,0,0,1-.567,0l-1.671-1.552a3.551,3.551,0,0,0-5.043,0l-2.357,2.357a3.551,3.551,0,0,0,0,5.043l1.581,1.581a.537.537,0,0,1,0,.567c-.179.388-.358.806-.507,1.194a.537.537,0,0,1-.507.3H12.331A3.551,3.551,0,0,0,8.78,28.622v3.312a3.551,3.551,0,0,0,3.551,3.551h2.208a.537.537,0,0,1,.507.3c0,.418.328.806.507,1.223a.537.537,0,0,1,0,.567l-1.581,1.581a3.551,3.551,0,0,0,0,5.043l2.357,2.357a3.64,3.64,0,0,0,5.043,0l1.581-1.581a.537.537,0,0,1,.567-.149l1.223.507a.537.537,0,0,1,.3.507v2.208A3.551,3.551,0,0,0,28.592,51.6H31.9a3.551,3.551,0,0,0,3.551-3.551V45.779a.537.537,0,0,1,.3-.507l1.194-.507a.537.537,0,0,1,.567,0L39.1,46.346a3.64,3.64,0,0,0,5.043,0l2.357-2.357a3.551,3.551,0,0,0,0-5.043l-1.581-1.581a.537.537,0,0,1,0-.567c.179-.388.358-.806.507-1.194a.537.537,0,0,1,.507-.3h2.208a3.551,3.551,0,0,0,3.551-3.551V28.592a3.551,3.551,0,0,0-3.61-3.551Zm.567,6.863a.567.567,0,0,1-.567.567H45.839a3.521,3.521,0,0,0-3.312,2.268,2.8,2.8,0,0,1-.418.985,3.521,3.521,0,0,0,.746,3.939l1.581,1.581a.567.567,0,0,1,0,.806l-2.357,2.357a.627.627,0,0,1-.806,0l-1.581-1.581a3.521,3.521,0,0,0-3.909-.627l-.955.388A3.491,3.491,0,0,0,32.561,45.9v2.208a.567.567,0,0,1-.567.567H28.652a.567.567,0,0,1-.567-.567V45.779a3.491,3.491,0,0,0-2.238-3.312l-.985-.269a3.342,3.342,0,0,0-1.4-.3,3.581,3.581,0,0,0-2.536,1.044l-1.581,1.581a.656.656,0,0,1-.806,0L16.18,42.169a.567.567,0,0,1,0-.806l1.581-1.581a3.521,3.521,0,0,0,.627-4.058c0-.328-.269-.627-.388-.985A3.521,3.521,0,0,0,14.688,32.5H12.48a.567.567,0,0,1-.567-.567V28.592a.567.567,0,0,1,.567-.567h2.208A3.521,3.521,0,0,0,18,25.758a2.4,2.4,0,0,1,.388-.955,3.521,3.521,0,0,0-.746-3.939L16.06,19.283a.567.567,0,0,1,0-.806l2.357-2.357a.567.567,0,0,1,.806,0L20.8,17.7a3.521,3.521,0,0,0,3.939.746l.985-.388A3.521,3.521,0,0,0,28,14.748V12.54a.567.567,0,0,1,.567-.567h3.312a.567.567,0,0,1,.567.567v2.208a3.521,3.521,0,0,0,2.238,3.312l.985.388A3.491,3.491,0,0,0,39.6,17.7l1.581-1.581a.567.567,0,0,1,.806,0l2.357,2.357a.567.567,0,0,1,0,.806l-1.581,1.581a3.521,3.521,0,0,0-.507,3.939q.209.477.388.985a3.521,3.521,0,0,0,3.312,2.268h2.208a.567.567,0,0,1,.567.567Z" transform="translate(10.168 6.44)" fill="#ee6c4d"/>
  <path id="Path_21491_-_Outline" data-name="Path 21491 - Outline" d="M29.5,8.46h3.163a4.752,4.752,0,0,1,4.747,4.747V15l.419.178L39.006,14a4.747,4.747,0,0,1,6.738,0L48.1,16.359a4.747,4.747,0,0,1,0,6.738l-1.168,1.168c.063.139.125.281.186.427h1.871a4.719,4.719,0,0,1,3.328,1.362,4.776,4.776,0,0,1,1.419,3.385V32.6a4.752,4.752,0,0,1-4.747,4.747H47.2c-.058.14-.119.282-.182.425l1.173,1.173a4.747,4.747,0,0,1,0,6.738l-2.371,2.371a4.836,4.836,0,0,1-6.7,0l-.017-.017-1.18-1.18-.419.178v1.857A4.752,4.752,0,0,1,32.75,53.64H29.438a4.752,4.752,0,0,1-4.747-4.747V47.1l-.34-.141-1.305,1.3a4.836,4.836,0,0,1-6.7,0l-.017-.017L13.972,45.89a4.747,4.747,0,0,1,0-6.738L15.129,38a4.871,4.871,0,0,1-.237-.472H13.177A4.752,4.752,0,0,1,8.43,32.78V29.468a4.752,4.752,0,0,1,4.747-4.747h1.787c.058-.14.119-.282.182-.425l-1.173-1.173a4.747,4.747,0,0,1,0-6.738l2.354-2.354a4.747,4.747,0,0,1,6.719-.015l1.264,1.174L24.751,15v-1.8A4.752,4.752,0,0,1,29.5,8.46Zm5.517,6.934V13.207a2.357,2.357,0,0,0-2.355-2.355H29.5a2.357,2.357,0,0,0-2.355,2.355v2.187a1.733,1.733,0,0,1-.964,1.6l-.062.029-1.133.481a1.76,1.76,0,0,1-1.727-.059l-.1-.061L21.368,15.72a2.355,2.355,0,0,0-3.344,0l-2.361,2.361a2.355,2.355,0,0,0,0,3.347l1.682,1.682.073.117a1.722,1.722,0,0,1,.048,1.748c-.17.37-.327.74-.455,1.074l-.044.1a1.723,1.723,0,0,1-1.6.964H13.177a2.357,2.357,0,0,0-2.355,2.355V32.78a2.357,2.357,0,0,0,2.355,2.355h2.188a1.722,1.722,0,0,1,1.6.964l.124.251v.231c.026.067.1.2.151.29.073.131.155.278.229.442a1.722,1.722,0,0,1-.053,1.738l-.073.117-1.679,1.679a2.355,2.355,0,0,0,0,3.347l2.351,2.351a2.444,2.444,0,0,0,3.37,0l1.557-1.557a1.733,1.733,0,0,1,1.8-.454l.082.031,1.3.54a1.733,1.733,0,0,1,.964,1.6v2.187a2.357,2.357,0,0,0,2.355,2.355H32.75A2.357,2.357,0,0,0,35.1,48.893V46.645a1.733,1.733,0,0,1,.964-1.6l.063-.029,1.133-.481a1.76,1.76,0,0,1,1.727.059l.117.073,1.669,1.669a2.444,2.444,0,0,0,3.37,0L46.5,43.989a2.355,2.355,0,0,0,0-3.347l-1.682-1.682-.073-.117a1.722,1.722,0,0,1-.048-1.748c.17-.37.327-.741.455-1.073l.044-.1a1.723,1.723,0,0,1,1.6-.964h2.187A2.357,2.357,0,0,0,51.337,32.6V29.439a2.369,2.369,0,0,0-.7-1.679,2.341,2.341,0,0,0-1.651-.676H46.705a1.721,1.721,0,0,1-1.6-.964l-.054-.128c-.125-.351-.28-.69-.444-1.046a1.722,1.722,0,0,1,.048-1.748l.073-.117L46.406,21.4a2.355,2.355,0,0,0,0-3.347l-2.361-2.361a2.355,2.355,0,0,0-3.347,0l-1.682,1.682-.117.073a1.76,1.76,0,0,1-1.727.059l-1.2-.51A1.733,1.733,0,0,1,35.015,15.394Zm-5.607-3.771h3.312a1.765,1.765,0,0,1,1.763,1.763v2.208a2.341,2.341,0,0,0,1.478,2.2L37,18.2a2.277,2.277,0,0,0,.944.2,2.309,2.309,0,0,0,1.645-.694l1.593-1.593a1.763,1.763,0,0,1,2.5,0l2.353,2.353a1.763,1.763,0,0,1,0,2.5l-1.55,1.55a2.31,2.31,0,0,0-.314,2.577l.03.063c.148.338.288.692.415,1.051a2.337,2.337,0,0,0,2.167,1.485h2.23a1.765,1.765,0,0,1,1.763,1.763V29.5l-.089,3.27a1.765,1.765,0,0,1-1.763,1.742h-2.26a2.339,2.339,0,0,0-2.117,1.366,2.875,2.875,0,0,1-.389.977c-.045.08-.088.156-.112.208a2.333,2.333,0,0,0,.5,2.592l1.588,1.588a1.763,1.763,0,0,1,0,2.5l-2.43,2.423a1.823,1.823,0,0,1-2.344,0l-.077-.07L39.706,44.53a2.324,2.324,0,0,0-2.569-.4l-.057.025-.986.4A2.3,2.3,0,0,0,34.6,46.73v2.222a1.765,1.765,0,0,1-1.763,1.763H29.5a1.765,1.765,0,0,1-1.763-1.763V46.607a2.3,2.3,0,0,0-1.421-2.157L25.3,44.173l-.087-.039a2.131,2.131,0,0,0-.886-.192H24.3a2.373,2.373,0,0,0-1.689.7l-1.633,1.633-.059.046a1.853,1.853,0,0,1-2.274,0l-.059-.046-2.41-2.41a1.763,1.763,0,0,1,0-2.5l1.577-1.577a2.32,2.32,0,0,0,.406-2.671l-.129-.255v-.187c-.019-.038-.045-.088-.067-.128A3.82,3.82,0,0,1,17.724,36a2.31,2.31,0,0,0-2.156-1.457H13.326a1.765,1.765,0,0,1-1.763-1.763V29.439a1.765,1.765,0,0,1,1.763-1.763h2.23a2.339,2.339,0,0,0,2.116-1.362,3.014,3.014,0,0,1,.4-1.033c.027-.049.054-.1.078-.143a2.336,2.336,0,0,0-.5-2.575l-1.588-1.588a1.763,1.763,0,0,1,0-2.5l2.353-2.353a1.763,1.763,0,0,1,2.5,0L22.5,17.7a2.324,2.324,0,0,0,2.607.5l.048-.02.985-.388a2.34,2.34,0,0,0,1.51-2.192V13.386A1.765,1.765,0,0,1,29.409,11.623Zm2.683,2.392H30.038v1.579A4.736,4.736,0,0,1,27,20.024l-.949.374a4.685,4.685,0,0,1-1.891.4A4.747,4.747,0,0,1,20.8,19.387l-1.132-1.132L18.2,19.726l1.138,1.138a4.736,4.736,0,0,1,.993,5.27l-.023.049c-.043.085-.091.172-.14.261-.039.07-.1.171-.122.23v.149l-.078.206a4.743,4.743,0,0,1-4.408,3.038h-1.6v2.083h1.612a4.689,4.689,0,0,1,4.392,3l.021.058a2.017,2.017,0,0,0,.1.214,2.8,2.8,0,0,1,.314.813,4.714,4.714,0,0,1-.938,5.231l-1.147,1.147,1.471,1.471,1.138-1.138A4.747,4.747,0,0,1,24.3,41.55h.031a4.506,4.506,0,0,1,1.781.364l1.014.283a4.7,4.7,0,0,1,3,4.437v1.689h2.083V46.744a4.694,4.694,0,0,1,3.029-4.426l.913-.371a4.717,4.717,0,0,1,5.206.854l.025.024,1.138,1.138,1.471-1.471-1.138-1.138a4.737,4.737,0,0,1-.993-5.27c.072-.158.147-.29.212-.406.032-.056.076-.134.1-.187v-.125l.078-.206a4.743,4.743,0,0,1,4.408-3.038H48.31l.055-2.024H46.782a4.742,4.742,0,0,1-4.408-3.038l-.01-.028c-.106-.3-.221-.593-.343-.874a4.688,4.688,0,0,1,.7-5.242l.048-.051L43.9,19.726l-1.471-1.471-1.138,1.138A4.705,4.705,0,0,1,37.946,20.8a4.653,4.653,0,0,1-1.9-.4l-.959-.378a4.742,4.742,0,0,1-3-4.436Z" transform="translate(9.322 5.594)" fill="#ee6c4d"/>
</svg>
