<svg xmlns="http://www.w3.org/2000/svg" width="75.396" height="67.472" viewBox="0 0 75.396 67.472">
  <g id="wallet" transform="translate(0 -26.656)">
    <path id="Path_22082" data-name="Path 22082" d="M67.967,36.045a10.193,10.193,0,0,0-10.148-9.389H10.182A10.193,10.193,0,0,0,0,36.838V83.946A10.193,10.193,0,0,0,10.182,94.128H65.215A10.193,10.193,0,0,0,75.4,83.946v-38.1a10.2,10.2,0,0,0-7.43-9.8ZM10.182,31.412H57.819a5.434,5.434,0,0,1,5.3,4.251H10.182a10.118,10.118,0,0,0-5.425,1.572v-.4A5.431,5.431,0,0,1,10.182,31.412ZM65.215,89.372H10.182a5.431,5.431,0,0,1-5.425-5.425v-38.1a5.431,5.431,0,0,1,5.425-5.425H65.215a5.431,5.431,0,0,1,5.425,5.425v8.3H55.475a10.9,10.9,0,0,0,0,21.8H70.64v8a5.431,5.431,0,0,1-5.425,5.425ZM70.64,71.186H55.475a6.142,6.142,0,0,1,0-12.284H70.64Z" fill="#ee6c4d"/>
    <circle id="Ellipse_3093" data-name="Ellipse 3093" cx="2.476" cy="2.476" r="2.476" transform="translate(53.882 62.748)" fill="#ee6c4d"/>
  </g>
</svg>
