<svg id="branch" xmlns="http://www.w3.org/2000/svg" width="88.333" height="88.333" viewBox="0 0 88.333 88.333">
  <path id="Path_22055" data-name="Path 22055" d="M33.124,18.247A7.124,7.124,0,1,0,26,11.124,7.132,7.132,0,0,0,33.124,18.247Zm0-11.4a4.274,4.274,0,1,1-4.274,4.274A4.279,4.279,0,0,1,33.124,6.849Z" transform="translate(11.043 1.699)" fill="#ee6c4d"/>
  <path id="Path_22056" data-name="Path 22056" d="M34.823,33.625,44.836,21.109a12.863,12.863,0,0,0,2.81-8.01v-.276a12.823,12.823,0,1,0-25.645,0V13.1a12.863,12.863,0,0,0,2.81,8.01Zm-9.973-20.8a9.973,9.973,0,0,1,19.946,0V13.1a10.011,10.011,0,0,1-2.186,6.23l-7.788,9.734-7.788-9.735A10,10,0,0,1,24.849,13.1Z" transform="translate(9.344 0)" fill="#ee6c4d"/>
  <path id="Path_22057" data-name="Path 22057" d="M55.124,4a7.124,7.124,0,1,0,7.124,7.124A7.132,7.132,0,0,0,55.124,4Zm0,11.4A4.274,4.274,0,1,1,59.4,11.124,4.279,4.279,0,0,1,55.124,15.4Z" transform="translate(20.387 1.699)" fill="#ee6c4d"/>
  <path id="Path_22058" data-name="Path 22058" d="M56.823,0A12.838,12.838,0,0,0,44,12.823V13.1a12.863,12.863,0,0,0,2.81,8.01L56.823,33.625,66.836,21.109a12.863,12.863,0,0,0,2.81-8.01v-.276A12.838,12.838,0,0,0,56.823,0ZM66.8,13.1a10.011,10.011,0,0,1-2.186,6.23l-7.788,9.734-7.788-9.735A10,10,0,0,1,46.849,13.1v-.276a9.973,9.973,0,1,1,19.946,0Z" transform="translate(18.688 0)" fill="#ee6c4d"/>
  <path id="Path_22059" data-name="Path 22059" d="M11.124,18.247A7.124,7.124,0,1,0,4,11.124,7.132,7.132,0,0,0,11.124,18.247Zm0-11.4a4.274,4.274,0,1,1-4.274,4.274A4.279,4.279,0,0,1,11.124,6.849Z" transform="translate(1.699 1.699)" fill="#ee6c4d"/>
  <path id="Path_22060" data-name="Path 22060" d="M12.823,33.625,22.836,21.109a12.863,12.863,0,0,0,2.81-8.01v-.276A12.823,12.823,0,0,0,0,12.823V13.1a12.863,12.863,0,0,0,2.81,8.01Zm-9.973-20.8a9.973,9.973,0,1,1,19.946,0V13.1a10.011,10.011,0,0,1-2.186,6.23l-7.788,9.734L5.035,19.328A10,10,0,0,1,2.849,13.1Z" fill="#ee6c4d"/>
  <path id="Path_22061" data-name="Path 22061" d="M85.484,47.751V31.608a3.9,3.9,0,0,0-2.849-3.746V22H79.785v6.064l-2.849.855V26.274H74.086v3.5L68.323,31.5a3.886,3.886,0,0,0-2.785,3.744v1H56.989V33.4a2.852,2.852,0,0,0-2.849-2.849H51.29V27.7H48.441v2.849H45.591v-5.7H42.742v5.7H39.893V27.7H37.043v2.849H34.194A2.852,2.852,0,0,0,31.344,33.4v2.849H22.8v-1A3.888,3.888,0,0,0,20.009,31.5l-5.762-1.728v-3.5H11.4v2.644l-2.849-.855V22H5.7v5.864A3.9,3.9,0,0,0,2.849,31.61V47.751A3.679,3.679,0,0,0,.464,53.125l.124.224a49.852,49.852,0,0,0,87.157,0l.125-.225a3.681,3.681,0,0,0-2.386-5.373Zm-17.1-12.5a1.054,1.054,0,0,1,.755-1.016l12.129-3.639a1.081,1.081,0,0,1,1.363,1.016V47.645H74.086V39.1a2.852,2.852,0,0,0-2.849-2.849H68.387Zm2.849,3.85v8.548H56.989V39.1ZM34.194,33.4H54.14V47.645H34.194V33.4ZM31.344,47.645H17.1V39.1H31.344ZM7.064,30.594,19.19,34.231a1.054,1.054,0,0,1,.757,1.016v1H17.1A2.852,2.852,0,0,0,14.247,39.1v8.548H5.7V31.608A1.077,1.077,0,0,1,7.064,30.594ZM3.079,51.964l-.124-.224a.838.838,0,0,1,.732-1.245H28.495v1.425a1.427,1.427,0,0,1-1.425,1.425H18.522a4.274,4.274,0,0,0,0,8.548h17.1a1.425,1.425,0,1,1,0,2.849H32.769a4.274,4.274,0,1,0,0,8.548,1.427,1.427,0,0,1,1.425,1.425v.338A47.025,47.025,0,0,1,3.079,51.964ZM37.043,75.577v-.862a4.279,4.279,0,0,0-4.274-4.274,1.425,1.425,0,0,1,0-2.849h2.849a4.274,4.274,0,1,0,0-8.548h-17.1a1.425,1.425,0,0,1,0-2.849H27.07a4.279,4.279,0,0,0,4.274-4.274V50.495H51.29v1.425a4.279,4.279,0,0,0,4.274,4.274H69.812a1.425,1.425,0,0,1,0,2.849H61.264a4.279,4.279,0,0,0-4.274,4.274,1.427,1.427,0,0,1-1.425,1.425h-5.7a4.274,4.274,0,1,0,0,8.548,1.427,1.427,0,0,1,1.425,1.425v.862a45.368,45.368,0,0,1-14.247,0ZM85.379,51.74l-.124.224A47.025,47.025,0,0,1,54.14,75.053v-.338a4.279,4.279,0,0,0-4.274-4.274,1.425,1.425,0,0,1,0-2.849h5.7a4.279,4.279,0,0,0,4.274-4.274,1.427,1.427,0,0,1,1.425-1.425h8.548a4.274,4.274,0,1,0,0-8.548H55.565a1.427,1.427,0,0,1-1.425-1.425V50.495H84.646a.838.838,0,0,1,.732,1.245Z" transform="translate(0 9.344)" fill="#ee6c4d"/>
  <path id="Path_22062" data-name="Path 22062" d="M14,36h2.849v2.849H14Z" transform="translate(5.946 15.29)" fill="#ee6c4d"/>
  <path id="Path_22063" data-name="Path 22063" d="M18,36h2.849v2.849H18Z" transform="translate(7.645 15.29)" fill="#ee6c4d"/>
  <path id="Path_22064" data-name="Path 22064" d="M26,32h2.849v2.849H26Z" transform="translate(11.043 13.591)" fill="#ee6c4d"/>
  <path id="Path_22065" data-name="Path 22065" d="M30,32h2.849v2.849H30Z" transform="translate(12.742 13.591)" fill="#ee6c4d"/>
  <path id="Path_22066" data-name="Path 22066" d="M26,36h2.849v2.849H26Z" transform="translate(11.043 15.29)" fill="#ee6c4d"/>
  <path id="Path_22067" data-name="Path 22067" d="M30,36h2.849v2.849H30Z" transform="translate(12.742 15.29)" fill="#ee6c4d"/>
  <path id="Path_22068" data-name="Path 22068" d="M34,32h2.849v2.849H34Z" transform="translate(14.441 13.591)" fill="#ee6c4d"/>
  <path id="Path_22069" data-name="Path 22069" d="M34,36h2.849v2.849H34Z" transform="translate(14.441 15.29)" fill="#ee6c4d"/>
  <path id="Path_22070" data-name="Path 22070" d="M6,36H8.849v2.849H6Z" transform="translate(2.548 15.29)" fill="#ee6c4d"/>
  <path id="Path_22071" data-name="Path 22071" d="M6,32H8.849v2.849H6Z" transform="translate(2.548 13.591)" fill="#ee6c4d"/>
  <path id="Path_22072" data-name="Path 22072" d="M46,36h2.849v2.849H46Z" transform="translate(19.538 15.29)" fill="#ee6c4d"/>
  <path id="Path_22073" data-name="Path 22073" d="M42,36h2.849v2.849H42Z" transform="translate(17.839 15.29)" fill="#ee6c4d"/>
  <path id="Path_22074" data-name="Path 22074" d="M54,36h2.849v2.849H54Z" transform="translate(22.936 15.29)" fill="#ee6c4d"/>
  <path id="Path_22075" data-name="Path 22075" d="M54,32h2.849v2.849H54Z" transform="translate(22.936 13.591)" fill="#ee6c4d"/>
</svg>
