<svg xmlns="http://www.w3.org/2000/svg" width="81.466" height="81.642" viewBox="0 0 81.466 81.642">
  <g id="budget" transform="translate(-0.549)">
    <g id="Group_62644" data-name="Group 62644" transform="translate(0.549)">
      <g id="Group_62643" data-name="Group 62643">
        <path id="Path_22096" data-name="Path 22096" d="M72.023,26.686H66.138V15.1a7.521,7.521,0,0,0-2.079-5.183l-3.8-3.979C57.029,2.618,56.622,1.678,54.7.745A7.52,7.52,0,0,0,51.444,0H23.668a7.511,7.511,0,0,0-7.5,7.5v40.46H14.583a4.326,4.326,0,0,0-3.072,7.374,4.313,4.313,0,0,0-1.257,3.046,4.441,4.441,0,0,0,.085.856A10.911,10.911,0,0,0,11.9,81l21.344-.008a4.326,4.326,0,0,0,3.072-7.374,4.3,4.3,0,0,0,1.25-2.831h1.624v.867a10,10,0,0,0,9.992,9.992H72.023a10,10,0,0,0,9.992-9.992V36.678A10,10,0,0,0,72.023,26.686Zm-10.21-15.4s0,0,0,0h0a.035.035,0,0,0,.006.008l0,0a.027.027,0,0,0,.01.01.022.022,0,0,1,0,.006s0,0,0,0,0,0,0,0,0,0,.006.006H55.427V4.535C60.465,9.859,61.6,11.06,61.813,11.286ZM14.583,50.528H33.243a1.763,1.763,0,1,1,0,3.527H14.583a1.763,1.763,0,1,1,0-3.527Zm0,6.092H33.243a1.763,1.763,0,1,1,0,3.527H20.354a10.445,10.445,0,0,0-1.624-.587,10.811,10.811,0,0,0-2.565-.377c-.252-.006-.5,0-.755.006H13.016a1.734,1.734,0,0,1-.2-.806A1.767,1.767,0,0,1,14.583,56.62Zm20.424,7.855a1.766,1.766,0,0,1-1.763,1.763H26.066a10.789,10.789,0,0,0-2.177-3.527h9.354A1.767,1.767,0,0,1,35.007,64.475Zm-26.664-2.3a11.067,11.067,0,0,0-2.02,2.591H4.829A8.47,8.47,0,0,1,8.343,62.173Zm-4.878,5H5.332a11.072,11.072,0,0,0-.35,1.922H3.01A8.427,8.427,0,0,1,3.465,67.169Zm.207,6.357a8.42,8.42,0,0,1-.6-2.03H5.028a9.678,9.678,0,0,0,.458,2.03Zm1.6,2.4c.787,0,1.244,0,1.351,0a10.83,10.83,0,0,0,1.725,2.087A8.473,8.473,0,0,1,5.272,75.93Zm10.943,2.663A8.508,8.508,0,1,1,21.6,63.826,8.5,8.5,0,0,1,16.215,78.593Zm17.029-.17H22.892A10.987,10.987,0,0,0,25.648,74.9h7.6a1.763,1.763,0,1,1,0,3.527Zm1.749-7.641a1.764,1.764,0,0,1-1.749,1.549H26.533a11.019,11.019,0,0,0,.155-3.527h6.555A1.765,1.765,0,0,1,34.992,70.782Zm4.2-2.565H36.874a4.255,4.255,0,0,0-.56-.7,4.319,4.319,0,0,0,0-6.092,4.319,4.319,0,0,0,0-6.092,4.332,4.332,0,0,0-3.072-7.374H18.73V7.5a4.944,4.944,0,0,1,4.938-4.938H52.862V12.612a1.282,1.282,0,0,0,1.283,1.283h9.276c.268,1.039.1.7.152,12.791H49.182a10,10,0,0,0-9.992,9.992V68.217Zm40.422,3.432a7.6,7.6,0,0,1-7.588,7.588H49.182a7.6,7.6,0,0,1-7.588-7.588V36.678a7.6,7.6,0,0,1,7.588-7.588H72.023a7.6,7.6,0,0,1,7.588,7.588V71.649Z" transform="translate(-0.549)" fill="#ee6c4d"/>
      </g>
    </g>
    <g id="Group_62646" data-name="Group 62646" transform="translate(45.23 31.818)">
      <g id="Group_62645" data-name="Group 62645">
        <path id="Path_22097" data-name="Path 22097" d="M307.465,199.538H284.794a4.037,4.037,0,0,0-4.037,4.037v4.4a4.037,4.037,0,0,0,4.037,4.037h4.362a1.2,1.2,0,0,0,0-2.4h-4.362a1.637,1.637,0,0,1-1.632-1.632v-4.4a1.637,1.637,0,0,1,1.632-1.632h22.672a1.634,1.634,0,0,1,1.632,1.632v4.4a1.634,1.634,0,0,1-1.632,1.632H294.34a1.2,1.2,0,0,0,0,2.4h13.125a4.041,4.041,0,0,0,4.037-4.037v-4.4A4.041,4.041,0,0,0,307.465,199.538Z" transform="translate(-280.757 -199.538)" fill="#ee6c4d"/>
      </g>
    </g>
    <g id="Group_62648" data-name="Group 62648" transform="translate(45.23 57.154)">
      <g id="Group_62647" data-name="Group 62647">
        <path id="Path_22098" data-name="Path 22098" d="M287.383,358.428h-4.109a2.52,2.52,0,0,0-2.517,2.517v4.107a2.52,2.52,0,0,0,2.517,2.517h4.109a2.519,2.519,0,0,0,2.517-2.517v-4.107A2.519,2.519,0,0,0,287.383,358.428Zm.112,6.624a.113.113,0,0,1-.112.112h-4.109a.113.113,0,0,1-.112-.112v-4.107a.113.113,0,0,1,.112-.112h4.109a.113.113,0,0,1,.112.112Z" transform="translate(-280.757 -358.428)" fill="#ee6c4d"/>
      </g>
    </g>
    <g id="Group_62650" data-name="Group 62650" transform="translate(66.964 46.413)">
      <g id="Group_62649" data-name="Group 62649">
        <path id="Path_22099" data-name="Path 22099" d="M423.68,291.068h-4.107a2.519,2.519,0,0,0-2.517,2.517v4.107a2.519,2.519,0,0,0,2.517,2.517h4.107a2.519,2.519,0,0,0,2.517-2.517v-4.107A2.519,2.519,0,0,0,423.68,291.068Zm.112,6.624a.112.112,0,0,1-.112.112h-4.107a.113.113,0,0,1-.112-.112c.05-4.064-.1-4.22.112-4.22h4.107a.112.112,0,0,1,.112.112Z" transform="translate(-417.056 -291.068)" fill="#ee6c4d"/>
      </g>
    </g>
    <g id="Group_62652" data-name="Group 62652" transform="translate(45.23 46.413)">
      <g id="Group_62651" data-name="Group 62651">
        <path id="Path_22100" data-name="Path 22100" d="M287.383,291.068h-4.109a2.52,2.52,0,0,0-2.517,2.517v4.107a2.52,2.52,0,0,0,2.517,2.517h4.109a2.519,2.519,0,0,0,2.517-2.517v-4.107A2.519,2.519,0,0,0,287.383,291.068Zm.112,6.624a.113.113,0,0,1-.112.112h-4.109a.113.113,0,0,1-.112-.112v-4.107a.113.113,0,0,1,.112-.112h4.109a.113.113,0,0,1,.112.112Z" transform="translate(-280.757 -291.068)" fill="#ee6c4d"/>
      </g>
    </g>
    <g id="Group_62654" data-name="Group 62654" transform="translate(45.226 67.369)">
      <g id="Group_62653" data-name="Group 62653">
        <path id="Path_22101" data-name="Path 22101" d="M289.244,423.339a2.516,2.516,0,0,0-1.884-.848h-4.109a2.509,2.509,0,0,0-1.882.848,3.439,3.439,0,0,0-.635,2.565v3.211a2.52,2.52,0,0,0,2.517,2.517h4.109a2.519,2.519,0,0,0,2.517-2.517V425.9A3.468,3.468,0,0,0,289.244,423.339Zm-1.884,5.888c-4.059-.05-4.221.1-4.221-.112,0-4.349-.048-4.22.112-4.22h4.109c.2,0,.075.274.112,1.008C287.472,425.9,287.577,429.227,287.36,429.227Z" transform="translate(-280.73 -422.491)" fill="#ee6c4d"/>
      </g>
    </g>
    <g id="Group_62656" data-name="Group 62656" transform="translate(66.964 57.154)">
      <g id="Group_62655" data-name="Group 62655">
        <path id="Path_22102" data-name="Path 22102" d="M423.041,358.428H420.21a3.159,3.159,0,0,0-3.155,3.155v12.756a3.449,3.449,0,0,0,3.444,3.445h2.254a3.448,3.448,0,0,0,3.444-3.445V361.583A3.158,3.158,0,0,0,423.041,358.428Zm-.288,16.952H420.5a1.041,1.041,0,0,1-1.039-1.04V361.583a.751.751,0,0,1,.75-.75h2.831a.751.751,0,0,1,.75.75v12.756h0A1.04,1.04,0,0,1,422.753,375.38Z" transform="translate(-417.055 -358.428)" fill="#ee6c4d"/>
      </g>
    </g>
    <g id="Group_62658" data-name="Group 62658" transform="translate(26.406 26.675)">
      <g id="Group_62657" data-name="Group 62657">
        <path id="Path_22103" data-name="Path 22103" d="M167.8,175.538c-1.466-.539-2.525-.928-2.525-2.286,0-1.238.822-1.865,2.443-1.865,1.721,0,2.184.758,2.791.758a1.155,1.155,0,0,0,1.025-1.184c0-1-1.634-1.5-3.095-1.629v-.9a1.139,1.139,0,1,0-2.279,0v1.047a3.726,3.726,0,0,0-3.095,3.9c0,2.8,2.06,3.573,3.716,4.195,1.621.609,2.9,1.09,2.9,2.941,0,1.529-.849,2.3-2.523,2.3-2.451,0-2.473-1.655-3.408-1.655a1.2,1.2,0,0,0-1.045,1.184c0,.947,1.411,2.193,3.454,2.516v.873a1.139,1.139,0,0,0,2.279,0v-.9a4.116,4.116,0,0,0,3.454-4.446C171.893,177.042,169.623,176.208,167.8,175.538Z" transform="translate(-162.707 -167.288)" fill="#ee6c4d"/>
      </g>
    </g>
    <g id="Group_62660" data-name="Group 62660" transform="translate(56.028 67.369)">
      <g id="Group_62659" data-name="Group 62659">
        <path id="Path_22104" data-name="Path 22104" d="M356.848,423.2a2.507,2.507,0,0,0-1.744-.705h-4.109a2.515,2.515,0,0,0-1.884.848,3.452,3.452,0,0,0-.633,2.565v3.211a2.519,2.519,0,0,0,2.517,2.517H355.1a2.519,2.519,0,0,0,2.515-2.517v-4.109A2.508,2.508,0,0,0,356.848,423.2Zm-1.744,6.031c-4.059-.05-4.221.1-4.221-.112v-4.109a.112.112,0,0,1,.112-.111H355.1a.111.111,0,0,1,.111.111C355.166,429.075,355.317,429.227,355.1,429.227Z" transform="translate(-348.474 -422.491)" fill="#ee6c4d"/>
      </g>
    </g>
    <g id="Group_62662" data-name="Group 62662" transform="translate(56.032 46.413)">
      <g id="Group_62661" data-name="Group 62661">
        <path id="Path_22105" data-name="Path 22105" d="M355.125,291.068h-4.109a2.519,2.519,0,0,0-2.517,2.517v4.107a2.519,2.519,0,0,0,2.517,2.517h4.109a2.479,2.479,0,0,0,.915-.173,2.52,2.52,0,0,0,1.6-2.344v-4.107A2.52,2.52,0,0,0,355.125,291.068Zm0,6.736h-4.109a.113.113,0,0,1-.112-.112v-4.107c0-.216.149-.064,4.221-.112a.111.111,0,0,1,.111.112v4.107h0A.111.111,0,0,1,355.125,297.8Z" transform="translate(-348.499 -291.068)" fill="#ee6c4d"/>
      </g>
    </g>
    <g id="Group_62664" data-name="Group 62664" transform="translate(56.032 57.154)">
      <g id="Group_62663" data-name="Group 62663">
        <path id="Path_22106" data-name="Path 22106" d="M356.04,358.6a2.479,2.479,0,0,0-.915-.173h-4.109a2.519,2.519,0,0,0-2.517,2.517v4.107a2.519,2.519,0,0,0,2.517,2.517h4.109a2.519,2.519,0,0,0,2.515-2.517v-4.107A2.52,2.52,0,0,0,356.04,358.6Zm-.8,6.451a.111.111,0,0,1-.111.112h-4.109a.113.113,0,0,1-.112-.112v-4.107a.113.113,0,0,1,.112-.112h4.109a.111.111,0,0,1,.111.112Z" transform="translate(-348.499 -358.428)" fill="#ee6c4d"/>
      </g>
    </g>
    <g id="Group_62666" data-name="Group 62666" transform="translate(51.495 16.431)">
      <g id="Group_62665" data-name="Group 62665">
        <path id="Path_22107" data-name="Path 22107" d="M324.27,103.041h-3.02a1.2,1.2,0,0,0,0,2.4h3.02a1.2,1.2,0,0,0,0-2.4Z" transform="translate(-320.047 -103.041)" fill="#ee6c4d"/>
      </g>
    </g>
    <g id="Group_62668" data-name="Group 62668" transform="translate(25.364 16.431)">
      <g id="Group_62667" data-name="Group 62667">
        <path id="Path_22108" data-name="Path 22108" d="M178.694,103.041H157.372a1.2,1.2,0,0,0,0,2.4h21.322a1.2,1.2,0,1,0,0-2.4Z" transform="translate(-156.17 -103.041)" fill="#ee6c4d"/>
      </g>
    </g>
    <g id="Group_62670" data-name="Group 62670" transform="translate(25.364 22.399)">
      <g id="Group_62669" data-name="Group 62669">
        <path id="Path_22109" data-name="Path 22109" d="M161.194,140.472h-3.822a1.2,1.2,0,1,0,0,2.4h3.822a1.2,1.2,0,0,0,0-2.4Z" transform="translate(-156.17 -140.472)" fill="#ee6c4d"/>
      </g>
    </g>
    <g id="Group_62672" data-name="Group 62672" transform="translate(33.995 22.399)">
      <g id="Group_62671" data-name="Group 62671">
        <path id="Path_22110" data-name="Path 22110" d="M232.022,140.472H211.5a1.2,1.2,0,1,0,0,2.4h20.52a1.2,1.2,0,0,0,0-2.4Z" transform="translate(-210.299 -140.472)" fill="#ee6c4d"/>
      </g>
    </g>
    <g id="Group_62674" data-name="Group 62674" transform="translate(12.558 63.679)">
      <g id="Group_62673" data-name="Group 62673">
        <path id="Path_22111" data-name="Path 22111" d="M78.472,403.463c0-.3.111-.389.215-.447a2.066,2.066,0,0,1,1.743.118,1.374,1.374,0,0,0,.651.2c1.186,0,2.124-2.2-.709-2.691v-.076a1.218,1.218,0,0,0-2.437,0v.231a2.734,2.734,0,0,0-1.858,2.738c0,2.051,1.49,2.61,2.578,3.019,1.038.39,1.4.56,1.4,1.266,0,.441-.119.85-.981.85-1.257,0-1.106-.993-2.047-.993a1.256,1.256,0,0,0-1.162,1.245c0,.833.866,1.624,2.074,1.944v.091a1.218,1.218,0,1,0,2.437,0v-.123a3.012,3.012,0,0,0,2.074-3.085C82.446,404.095,78.472,404.643,78.472,403.463Z" transform="translate(-75.861 -399.347)" fill="#ee6c4d"/>
      </g>
    </g>
  </g>
</svg>
