<svg xmlns="http://www.w3.org/2000/svg" width="26.364" height="26.333" viewBox="0 0 26.364 26.333">
  <path id="_029-find_my_gadget_app" data-name="029-find my gadget app" d="M20.853,13.271A2.723,2.723,0,0,0,23,12.227c2.229-2.829,3.359-4.988,3.359-6.415a5.51,5.51,0,1,0-11.021,0c0,1.427,1.13,3.586,3.359,6.415A2.723,2.723,0,0,0,20.853,13.271Zm0-10.918A3.458,3.458,0,0,1,24.3,5.812c0,.695-.766,2.41-2.917,5.14a.675.675,0,0,1-1.066,0C18.169,8.222,17.4,6.506,17.4,5.812a3.458,3.458,0,0,1,3.45-3.459ZM13.381,5.38a1.03,1.03,0,0,1-.92,1.129A7.011,7.011,0,1,0,19.784,15.9a1.03,1.03,0,0,1,1.933.713A9.078,9.078,0,1,1,12.252,4.46a1.03,1.03,0,0,1,1.129.92Zm-.2,6.809a1.287,1.287,0,1,1-1.287,1.287,1.287,1.287,0,0,1,1.287-1.287Zm12.4,5.868C22.367,26.983,10.352,29.6,3.767,22.717A13.214,13.214,0,0,1,12.231.327a1.03,1.03,0,0,1,.146,2.055A11.168,11.168,0,0,0,2.057,13.407,11.222,11.222,0,0,0,13.128,24.6a11.24,11.24,0,0,0,10.518-7.259,1.03,1.03,0,0,1,1.932.716ZM20.853,4.413A1.287,1.287,0,1,1,19.566,5.7,1.287,1.287,0,0,1,20.853,4.413Zm-3,10.76a1.03,1.03,0,0,0-1.932-.716,2.924,2.924,0,0,1-4.779,1.056,2.89,2.89,0,0,1,1.4-4.845,1.03,1.03,0,0,0-.47-2.006,4.942,4.942,0,0,0,1.11,9.757,5,5,0,0,0,4.674-3.247Z" transform="translate(0 -0.293)"/>
</svg>
