<svg xmlns="http://www.w3.org/2000/svg" width="34" height="18.417" viewBox="0 0 34 18.417">
  <g id="Plate_Number" data-name="Plate Number" transform="translate(0 -9)">
    <path id="Path_21927" data-name="Path 21927" d="M31.875,9H2.125A2.125,2.125,0,0,0,0,11.125V25.292a2.125,2.125,0,0,0,2.125,2.125h29.75A2.125,2.125,0,0,0,34,25.292V11.125A2.125,2.125,0,0,0,31.875,9Zm.708,16.292a.708.708,0,0,1-.708.708H2.125a.708.708,0,0,1-.708-.708V11.125a.708.708,0,0,1,.708-.708h29.75a.708.708,0,0,1,.708.708Z"/>
    <path id="Path_21928" data-name="Path 21928" d="M8.542,14H7.125A2.125,2.125,0,0,0,5,16.125v2.833a2.125,2.125,0,0,0,2.125,2.125H8.542a2.125,2.125,0,0,0,2.125-2.125V16.125A2.125,2.125,0,0,0,8.542,14ZM7.125,15.417H8.542L6.417,18.25V16.125A.708.708,0,0,1,7.125,15.417Zm1.417,4.25H7.125L9.25,16.833v2.125A.708.708,0,0,1,8.542,19.667Z" transform="translate(-1.458 -1.458)"/>
    <path id="Path_21929" data-name="Path 21929" d="M28.542,14H27.125A2.125,2.125,0,0,0,25,16.125v2.833a2.125,2.125,0,0,0,2.125,2.125h1.417a2.125,2.125,0,0,0,2.125-2.125V16.125A2.125,2.125,0,0,0,28.542,14Zm-1.417,1.417h1.417L26.417,18.25V16.125A.708.708,0,0,1,27.125,15.417Zm1.417,4.25H27.125l2.125-2.833v2.125A.708.708,0,0,1,28.542,19.667Z" transform="translate(-7.292 -1.458)"/>
    <path id="Path_21930" data-name="Path 21930" d="M17.125,18.25H19.25v2.125a.708.708,0,1,0,1.417,0V14.708a.708.708,0,0,0-1.417,0v2.125H17.125a.708.708,0,0,1-.708-.708V14.708a.708.708,0,0,0-1.417,0v1.417A2.125,2.125,0,0,0,17.125,18.25Z" transform="translate(-4.375 -1.458)"/>
    <path id="Path_21931" data-name="Path 21931" d="M39.958,15.417a.708.708,0,0,0,0-1.417H36.417A1.417,1.417,0,0,0,35,15.417v1.417a1.417,1.417,0,0,0,1.417,1.417H39.25v1.417H35.708a.708.708,0,1,0,0,1.417H39.25a1.417,1.417,0,0,0,1.417-1.417V18.25a1.417,1.417,0,0,0-1.417-1.417H36.417V15.417Z" transform="translate(-10.208 -1.458)"/>
    <path id="Path_21932" data-name="Path 21932" d="M24.542,28H21.708a.708.708,0,1,0,0,1.417h2.833a.708.708,0,1,0,0-1.417Z" transform="translate(-6.125 -5.542)"/>
    <path id="Path_21933" data-name="Path 21933" d="M16.621,27.2l-.205.212L16.21,27.2A.711.711,0,0,0,15.2,28.21l.212.205-.212.205a.711.711,0,0,0,1.006,1.006l.205-.213.205.213a.711.711,0,0,0,1.006-1.006l-.212-.205.212-.205A.711.711,0,0,0,16.621,27.2Z" transform="translate(-4.374 -5.249)"/>
    <path id="Path_21934" data-name="Path 21934" d="M30.621,27.2l-.205.212L30.21,27.2A.711.711,0,0,0,29.2,28.21l.213.205-.213.205a.711.711,0,0,0,1.006,1.006l.205-.213.205.213a.711.711,0,1,0,1.006-1.006l-.212-.205.212-.205A.711.711,0,1,0,30.621,27.2Z" transform="translate(-8.457 -5.249)"/>
  </g>
</svg>
