<svg xmlns="http://www.w3.org/2000/svg" width="15.999" height="15.999" viewBox="0 0 15.999 15.999">
  <g id="gear" transform="translate(0 0)">
    <path id="Path_6" data-name="Path 6" d="M8,4.754A3.246,3.246,0,1,0,11.246,8,3.246,3.246,0,0,0,8,4.754ZM5.754,8A2.246,2.246,0,1,1,8,10.246,2.246,2.246,0,0,1,5.754,8Z" fill="#1c1f2c"/>
    <path id="Path_7" data-name="Path 7" d="M9.8,1.343a1.873,1.873,0,0,0-3.592,0l-.094.319a.873.873,0,0,1-1.255.52l-.292-.16a1.873,1.873,0,0,0-2.54,2.541l.159.292a.873.873,0,0,1-.52,1.255L1.343,6.2a1.873,1.873,0,0,0,0,3.592l.319.094a.873.873,0,0,1,.52,1.255l-.16.292a1.873,1.873,0,0,0,2.541,2.54l.292-.159a.873.873,0,0,1,1.255.52l.094.319a1.873,1.873,0,0,0,3.592,0l.094-.319a.873.873,0,0,1,1.255-.52l.292.16a1.873,1.873,0,0,0,2.54-2.541l-.159-.292a.873.873,0,0,1,.52-1.255l.319-.094a1.873,1.873,0,0,0,0-3.592l-.319-.094a.873.873,0,0,1-.52-1.255l.16-.292a1.873,1.873,0,0,0-2.541-2.54l-.292.159a.873.873,0,0,1-1.255-.52L9.8,1.343Zm-2.633.283a.872.872,0,0,1,1.674,0l.094.319A1.873,1.873,0,0,0,11.624,3.06l.291-.16A.873.873,0,0,1,13.1,4.085l-.159.292a1.873,1.873,0,0,0,1.116,2.692l.318.094a.872.872,0,0,1,0,1.674l-.319.094a1.873,1.873,0,0,0-1.115,2.693l.16.291A.873.873,0,0,1,11.915,13.1l-.291-.159a1.873,1.873,0,0,0-2.693,1.116l-.094.318a.872.872,0,0,1-1.674,0l-.094-.319A1.873,1.873,0,0,0,4.377,12.94l-.292.16A.873.873,0,0,1,2.9,11.915l.159-.291A1.873,1.873,0,0,0,1.945,8.93l-.319-.094a.872.872,0,0,1,0-1.674l.319-.094A1.873,1.873,0,0,0,3.06,4.377L2.9,4.085A.873.873,0,0,1,4.085,2.9l.292.159A1.873,1.873,0,0,0,7.069,1.945l.094-.319Z" fill="#1c1f2c"/>
  </g>
</svg>
