<svg xmlns="http://www.w3.org/2000/svg" width="15.586" height="14.586" viewBox="0 0 15.586 14.586">
  <g id="tags_1_" data-name="tags (1)" transform="translate(0 -1)">
    <path id="Path_4" data-name="Path 4" d="M3,2V6.586l7,7L14.586,9l-7-7ZM2,2A1,1,0,0,1,3,1H7.586a1,1,0,0,1,.707.293l7,7a1,1,0,0,1,0,1.414l-4.586,4.586a1,1,0,0,1-1.414,0l-7-7A1,1,0,0,1,2,6.586Z" fill="#1c1f2c"/>
    <path id="Path_5" data-name="Path 5" d="M5.5,5A.5.5,0,1,1,6,4.5.5.5,0,0,1,5.5,5Zm0,1A1.5,1.5,0,1,0,4,4.5,1.5,1.5,0,0,0,5.5,6ZM1,7.086a1,1,0,0,0,.293.707L8.75,15.25l-.043.043a1,1,0,0,1-1.414,0l-7-7A1,1,0,0,1,0,7.586V3A1,1,0,0,1,1,2Z" fill="#1c1f2c"/>
  </g>
</svg>
